<svg width="62" height="25" viewBox="0 0 62 25" fill="none" xmlns="http://www.w3.org/2000/svg">
<path d="M6.2168 7.42713C6.2168 2.43446 10.4395 1.0621 12.5508 1C14.6 1.0621 18.6985 2.43446 18.6985 7.42713C18.6985 12.4198 14.6 13.7922 12.5508 13.8543C10.4395 13.7922 6.2168 12.4198 6.2168 7.42713Z" fill="#212121"/>
<path d="M12.5508 1L12.5659 0.500229L12.551 0.499777L12.5361 0.500216L12.5508 1ZM12.5508 13.8543L12.5361 14.354L12.551 14.3545L12.5659 14.354L12.5508 13.8543ZM12.5361 0.500216C11.4016 0.533585 9.71325 0.914562 8.29492 1.96245C6.8531 3.02771 5.7168 4.76561 5.7168 7.42713H6.7168C6.7168 5.09598 7.69182 3.65137 8.88916 2.76675C10.11 1.86477 11.5887 1.52851 12.5655 1.49978L12.5361 0.500216ZM5.7168 7.42713C5.7168 10.0886 6.8531 11.8266 8.29492 12.8918C9.71325 13.9397 11.4016 14.3207 12.5361 14.354L12.5655 13.3545C11.5887 13.3257 10.11 12.9895 8.88916 12.0875C7.69182 11.2029 6.7168 9.75828 6.7168 7.42713H5.7168ZM12.5659 14.354C13.6724 14.3205 15.3161 13.9379 16.6959 12.8875C18.0986 11.8198 19.1985 10.0825 19.1985 7.42713H18.1985C18.1985 9.76442 17.2491 11.2097 16.0902 12.0918C14.9086 12.9913 13.4784 13.3259 12.5356 13.3545L12.5659 14.354ZM19.1985 7.42713C19.1985 4.77175 18.0986 3.03447 16.6959 1.96675C15.3161 0.916389 13.6724 0.533759 12.5659 0.500229L12.5356 1.49977C13.4784 1.52834 14.9086 1.86294 16.0902 2.76245C17.2491 3.64461 18.1985 5.08984 18.1985 7.42713H19.1985Z" fill="#212121"/>
<path d="M21.6797 7.42713C21.6797 2.43446 25.9023 1.0621 28.0137 1C30.0629 1.0621 34.1614 2.43446 34.1614 7.42713C34.1614 12.4198 30.0629 13.7922 28.0137 13.8543C25.9023 13.7922 21.6797 12.4198 21.6797 7.42713Z" fill="#212121"/>
<path d="M28.0137 1L28.0288 0.500229L28.0139 0.499777L27.999 0.500216L28.0137 1ZM28.0137 13.8543L27.999 14.354L28.0139 14.3545L28.0288 14.354L28.0137 13.8543ZM27.999 0.500216C26.8644 0.533585 25.1761 0.914562 23.7578 1.96245C22.316 3.02771 21.1797 4.76561 21.1797 7.42713H22.1797C22.1797 5.09598 23.1547 3.65137 24.352 2.76675C25.5729 1.86477 27.0516 1.52851 28.0284 1.49978L27.999 0.500216ZM21.1797 7.42713C21.1797 10.0886 22.316 11.8266 23.7578 12.8918C25.1761 13.9397 26.8644 14.3207 27.999 14.354L28.0284 13.3545C27.0516 13.3257 25.5729 12.9895 24.352 12.0875C23.1547 11.2029 22.1797 9.75828 22.1797 7.42713H21.1797ZM28.0288 14.354C29.1353 14.3205 30.779 13.9379 32.1588 12.8875C33.5615 11.8198 34.6614 10.0825 34.6614 7.42713H33.6614C33.6614 9.76442 32.712 11.2097 31.5531 12.0918C30.3714 12.9913 28.9413 13.3259 27.9985 13.3545L28.0288 14.354ZM34.6614 7.42713C34.6614 4.77175 33.5615 3.03447 32.1588 1.96675C30.779 0.916389 29.1353 0.533759 28.0288 0.500229L27.9985 1.49977C28.9413 1.52834 30.3714 1.86294 31.5531 2.76245C32.712 3.64461 33.6614 5.08984 33.6614 7.42713H34.6614Z" fill="#212121"/>
<path d="M49.4492 15.1585V1.93164H52.4299V15.1585H49.4492Z" fill="#212121" stroke="#212121"/>
<path d="M4.5529 24.1933L1.01332 20.4674C0.659315 20.0948 7.44819 18.5734 10.8869 17.8593V14.8787H14.2402V17.3936C21.99 15.4561 35.4776 15.2823 41.2527 15.4375V17.8593C35.0678 17.8593 30.7271 18.1698 29.3299 18.3251V24.1933H26.2561V18.7908C20.9654 19.0889 9.58283 22.5167 4.5529 24.1933Z" fill="#212121"/>
<path d="M38.8311 21.1195C43.6747 21.6412 44.3267 17.5489 44.0473 15.4375H47.1211C46.4505 20.6537 50.4434 21.3989 52.5236 21.1195V24.1933C49.5429 24.7894 46.5622 22.7651 45.4445 21.6784C43.5815 23.9885 40.2593 24.3176 38.8311 24.1933V21.1195Z" fill="#212121"/>
<path d="M54.666 22.2373L55.2249 18.6977L58.0193 19.2566L57.4604 22.7962L54.666 22.2373Z" fill="#212121"/>
<path d="M58.485 16.2759L55.7838 15.8102L57.0878 3.23535L61 3.79423L58.485 16.2759Z" fill="#212121"/>
<path d="M4.5529 24.1933L1.01332 20.4674C0.659315 20.0948 7.44819 18.5734 10.8869 17.8593V14.8787H14.2402V17.3936C21.99 15.4561 35.4776 15.2823 41.2527 15.4375V17.8593C35.0678 17.8593 30.7271 18.1698 29.3299 18.3251V24.1933H26.2561V18.7908C20.9654 19.0889 9.58283 22.5167 4.5529 24.1933Z" stroke="#212121"/>
<path d="M38.8311 21.1195C43.6747 21.6412 44.3267 17.5489 44.0473 15.4375H47.1211C46.4505 20.6537 50.4434 21.3989 52.5236 21.1195V24.1933C49.5429 24.7894 46.5622 22.7651 45.4445 21.6784C43.5815 23.9885 40.2593 24.3176 38.8311 24.1933V21.1195Z" stroke="#212121"/>
<path d="M54.666 22.2373L55.2249 18.6977L58.0193 19.2566L57.4604 22.7962L54.666 22.2373Z" stroke="#212121"/>
<path d="M58.485 16.2759L55.7838 15.8102L57.0878 3.23535L61 3.79423L58.485 16.2759Z" stroke="#212121"/>
<path d="M36.7812 4.91234V1.93164H47.9589V4.91234H46.4685L45.7233 10.5011H47.9589V13.4818H36.7812V10.5011H38.8305L38.0853 4.91234H36.7812Z" fill="#212121" stroke="#212121"/>
<path d="M41.4385 10.5009L40.6934 4.91211H43.8604L43.3015 10.5009H41.4385Z" fill="white" stroke="#212121"/>
<path d="M9.19727 7.42713C9.19727 4.96805 11.3086 4.22909 12.3643 4.16699C13.482 4.16699 15.7175 4.81902 15.7175 7.42713C15.7175 10.0352 13.482 10.6873 12.3643 10.6873C11.3086 10.6252 9.19727 9.88621 9.19727 7.42713Z" fill="white"/>
<path d="M12.3643 4.16699V3.66699H12.3496L12.3349 3.66785L12.3643 4.16699ZM12.3643 10.6873L12.3349 11.1864L12.3496 11.1873H12.3643V10.6873ZM12.3349 3.66785C11.7296 3.70346 10.8371 3.92827 10.0829 4.49966C9.30723 5.08738 8.69727 6.03031 8.69727 7.42713H9.69727C9.69727 6.36488 10.143 5.70879 10.6868 5.29673C11.2522 4.86835 11.9432 4.69262 12.3936 4.66613L12.3349 3.66785ZM8.69727 7.42713C8.69727 8.82395 9.30723 9.76688 10.0829 10.3546C10.8371 10.926 11.7296 11.1508 12.3349 11.1864L12.3936 10.1881C11.9432 10.1616 11.2522 9.98591 10.6868 9.55753C10.143 9.14547 9.69727 8.48938 9.69727 7.42713H8.69727ZM12.3643 11.1873C13.0004 11.1873 13.9455 11.0057 14.7468 10.4449C15.5742 9.86566 16.2175 8.90016 16.2175 7.42713H15.2175C15.2175 8.56221 14.7431 9.22678 14.1733 9.62562C13.5774 10.0428 12.8459 10.1873 12.3643 10.1873V11.1873ZM16.2175 7.42713C16.2175 5.9541 15.5742 4.9886 14.7468 4.4094C13.9455 3.84851 13.0004 3.66699 12.3643 3.66699V4.66699C12.8459 4.66699 13.5774 4.81148 14.1733 5.22864C14.7431 5.62748 15.2175 6.29205 15.2175 7.42713H16.2175Z" fill="#212121"/>
<path d="M24.6602 7.42713C24.6602 4.96805 26.7715 4.22909 27.8271 4.16699C28.9449 4.16699 31.1804 4.81902 31.1804 7.42713C31.1804 10.0352 28.9449 10.6873 27.8271 10.6873C26.7715 10.6252 24.6602 9.88621 24.6602 7.42713Z" fill="white"/>
<path d="M27.8271 4.16699V3.66699H27.8125L27.7978 3.66785L27.8271 4.16699ZM27.8271 10.6873L27.7978 11.1864L27.8125 11.1873H27.8271V10.6873ZM27.7978 3.66785C27.1925 3.70346 26.3 3.92827 25.5458 4.49966C24.7701 5.08738 24.1602 6.03031 24.1602 7.42713H25.1602C25.1602 6.36488 25.6059 5.70879 26.1497 5.29673C26.7151 4.86835 27.4061 4.69262 27.8565 4.66613L27.7978 3.66785ZM24.1602 7.42713C24.1602 8.82395 24.7701 9.76688 25.5458 10.3546C26.3 10.926 27.1925 11.1508 27.7978 11.1864L27.8565 10.1881C27.4061 10.1616 26.7151 9.98591 26.1497 9.55753C25.6059 9.14547 25.1602 8.48938 25.1602 7.42713H24.1602ZM27.8271 11.1873C28.4632 11.1873 29.4084 11.0057 30.2097 10.4449C31.0371 9.86566 31.6804 8.90016 31.6804 7.42713H30.6804C30.6804 8.56221 30.206 9.22678 29.6362 9.62562C29.0403 10.0428 28.3088 10.1873 27.8271 10.1873V11.1873ZM31.6804 7.42713C31.6804 5.9541 31.0371 4.9886 30.2097 4.4094C29.4084 3.84851 28.4632 3.66699 27.8271 3.66699V4.66699C28.3088 4.66699 29.0403 4.81148 29.6362 5.22864C30.206 5.62748 30.6804 6.29205 30.6804 7.42713H31.6804Z" fill="#212121"/>
</svg>
