<svg version="1.1" id="Layer_1" xmlns="http://www.w3.org/2000/svg" xmlns:xlink="http://www.w3.org/1999/xlink" x="0px" y="0px"
	 width="100%" viewBox="0 0 1870 1000" enable-background="new 0 0 1870 1000" xml:space="preserve">
<path fill="#FFFFFF" opacity="1.000000" stroke="none" 
	d="
M1871.000000,788.000000 
	C1871.000000,858.987793 1871.000000,929.975586 1871.000000,1000.981689 
	C1247.786011,1000.981689 624.572144,1000.981689 1.000000,1000.981689 
	C1.000000,896.970886 1.000000,792.941406 1.415967,688.461121 
	C2.554613,689.437744 3.810794,690.832520 3.900414,692.298584 
	C4.174479,696.781799 3.952901,701.293274 4.035003,705.791809 
	C4.054261,706.846924 4.476632,708.796631 4.770929,708.807678 
	C8.396250,708.943848 6.885986,711.655457 6.934103,713.237000 
	C7.103599,718.807983 6.999994,724.387390 6.999994,730.143066 
	C9.358117,730.143066 10.979761,730.143066 13.163363,730.143066 
	C13.163363,736.880859 13.163363,743.427246 13.163363,750.149536 
	C15.687245,750.149536 17.641895,750.149536 19.987562,750.149536 
	C19.987562,756.433105 19.987562,762.521912 19.987562,768.992004 
	C24.115297,768.992004 27.868769,768.992004 31.999924,768.992004 
	C31.999924,774.455566 31.999924,779.540894 31.999924,785.007812 
	C37.466492,785.007812 42.551373,785.007812 48.015633,785.007812 
	C48.015633,789.472351 48.015633,793.558411 48.015633,798.020264 
	C54.486530,798.020264 60.573963,798.020264 67.028023,798.020264 
	C67.028023,800.820801 67.028023,803.231323 67.028023,806.022461 
	C73.826126,806.022461 80.254456,806.022461 86.658356,806.022461 
	C86.948753,807.931641 87.180870,809.457642 87.397972,810.884949 
	C87.943352,810.940857 88.106529,810.972168 88.269699,810.972168 
	C231.269272,810.982849 374.268860,810.991638 517.268433,810.995483 
	C518.261353,810.995483 519.983826,811.223816 520.137390,810.846191 
	C522.321777,805.474243 526.844849,808.616882 530.227600,808.111450 
	C533.619690,807.604553 537.146667,808.000000 540.703857,808.000000 
	C540.954224,806.129639 541.158752,804.601379 541.410889,802.717773 
	C548.127991,802.717773 554.544617,802.717773 561.132202,802.717773 
	C561.132202,800.348328 561.132202,798.386047 561.132202,795.869934 
	C567.527832,795.869934 573.745117,795.869934 580.142334,795.869934 
	C580.142334,792.343018 580.142334,789.383850 580.142334,785.858154 
	C586.544373,785.858154 592.759460,785.858154 599.152466,785.858154 
	C599.152466,781.993774 599.152466,778.703552 599.152466,774.843018 
	C604.889160,774.843018 610.436096,774.843018 616.161865,774.843018 
	C616.161865,770.309509 616.161865,766.351990 616.161865,762.005371 
	C621.451660,762.005371 626.536926,762.005371 632.002075,762.005371 
	C632.002075,757.541504 632.002075,753.455261 632.002075,748.990479 
	C637.467102,748.990479 642.551941,748.990479 648.017456,748.990479 
	C648.017456,743.857544 648.017456,739.105713 648.017456,733.974548 
	C652.817139,733.974548 657.236328,733.974548 662.033081,733.974548 
	C662.033081,728.841125 662.033081,724.088989 662.033081,718.958862 
	C666.833618,718.958862 671.252563,718.958862 676.048706,718.958862 
	C676.048706,713.490662 676.048706,708.405701 676.048706,702.942871 
	C680.516418,702.942871 684.602112,702.942871 688.831360,702.942871 
	C688.831360,678.781982 688.831360,655.019348 688.831360,633.137451 
	C675.935242,623.831238 663.753967,615.593201 652.199402,606.554016 
	C639.602478,596.699219 627.578613,586.111084 615.320068,575.824646 
	C606.807434,568.681519 598.386353,561.427673 589.805908,554.367249 
	C577.681885,544.390930 565.448486,534.547546 552.699890,524.190796 
	C648.209961,524.190796 742.927551,524.190796 837.976685,524.190796 
	C837.976685,525.820190 838.362671,527.430969 837.864502,528.692505 
	C837.397095,529.876038 835.667603,530.523438 835.067383,531.699646 
	C833.528625,534.715027 832.344238,537.909058 830.951111,541.001465 
	C829.677490,543.828369 828.274597,546.596924 827.003296,549.424805 
	C825.180847,553.478638 824.281128,558.348083 821.436707,561.445068 
	C817.450256,565.785461 815.905090,570.872314 813.988342,576.001221 
	C813.734253,576.681152 813.445068,577.383118 813.013672,577.955444 
	C811.383911,580.117493 809.332886,582.045776 808.108582,584.408325 
	C806.600281,587.318848 805.798157,590.590149 804.616638,593.677185 
	C803.933899,595.461060 803.271606,597.287476 802.305115,598.920227 
	C800.659851,601.699646 798.629944,604.255920 797.047668,607.067017 
	C795.661072,609.530396 795.060791,612.508545 793.403625,614.730042 
	C791.162048,617.734619 788.024109,620.091370 787.962158,624.325684 
	C787.954224,624.870483 787.562561,625.480591 787.195251,625.937012 
	C785.500977,628.042603 783.241028,629.865356 782.133728,632.233704 
	C780.063416,636.661377 778.662598,641.400940 776.942017,645.995300 
	C776.798767,646.377625 776.312744,646.618958 776.037720,646.966736 
	C774.356323,649.093018 771.953491,650.998535 771.188843,653.419189 
	C769.998596,657.187256 769.063477,660.576416 766.336060,663.913025 
	C763.482666,667.403503 762.812317,672.630920 760.949768,676.997620 
	C759.914001,679.425964 758.510376,681.724304 757.058411,683.941040 
	C755.504272,686.313843 753.400208,688.363220 752.082336,690.843933 
	C750.618408,693.599609 750.541992,697.517761 748.474060,699.426758 
	C745.421448,702.244812 745.110046,705.658447 743.911499,709.024963 
	C743.035828,711.484497 741.389526,713.675476 740.042297,715.960022 
	C738.385620,718.769226 736.497192,721.458496 735.044312,724.367126 
	C732.990356,728.479126 731.482361,732.875854 729.273071,736.893616 
	C728.004395,739.200684 724.356384,740.966797 724.310181,743.033081 
	C724.177795,748.952881 717.723694,751.630859 717.878662,757.354919 
	C713.557861,757.195312 715.722534,761.227905 714.284363,763.001221 
	C711.970825,765.853821 710.043884,769.019958 707.322205,772.970093 
	C707.507507,772.940247 706.284363,773.137146 705.061218,773.333984 
	C705.377197,773.603149 705.693115,773.872314 706.009094,774.141418 
	C698.398621,787.169922 690.788147,800.198364 682.795654,813.880798 
	C682.548950,813.918274 681.328430,814.103516 681.378723,814.095886 
	C677.505615,821.889343 674.068848,828.804749 670.800354,835.381653 
	C673.736572,836.962646 676.842346,838.308899 679.597351,840.173340 
	C693.608276,849.655518 707.329529,859.579956 721.537354,868.752869 
	C735.168823,877.553528 749.377502,885.455017 763.135742,894.065979 
	C775.146851,901.583374 786.853088,909.586304 798.760437,917.271912 
	C802.500061,919.685730 806.305542,923.301941 810.340637,923.693970 
	C820.053955,924.637451 829.920837,923.999573 839.850647,923.999573 
	C839.917297,923.002075 839.736389,922.224060 840.038452,921.761475 
	C841.815186,919.040833 843.883301,916.496887 845.501709,913.690674 
	C846.910095,911.248535 847.759827,908.491333 849.029419,905.960083 
	C850.216797,903.592834 851.524475,901.269531 852.974670,899.054871 
	C854.530090,896.679504 856.602783,894.606689 857.920288,892.121155 
	C859.382263,889.363281 859.907166,886.090332 861.472595,883.411255 
	C862.811462,881.119812 865.427368,879.577332 866.779724,877.290344 
	C868.278809,874.755310 868.655640,871.560608 870.134338,869.008362 
	C871.460999,866.718445 874.733276,865.115051 875.150635,862.842163 
	C875.780334,859.413025 878.661011,858.150757 879.903198,855.596375 
	C880.569336,854.226746 879.124390,851.647461 882.319336,851.943237 
	C882.430054,848.447021 887.579895,846.995728 886.031799,842.794800 
	C885.887207,842.402466 886.149658,841.860229 886.251465,841.205078 
	C887.387146,841.078125 888.485168,840.955383 888.727539,840.928284 
	C894.798889,830.555786 900.562073,820.709900 907.001648,809.708374 
	C909.591492,810.523132 913.420837,812.282654 917.423645,812.880432 
	C928.369995,814.515320 939.376221,816.671326 950.382385,816.815552 
	C987.375916,817.300659 1024.379883,816.968201 1061.379761,817.014038 
	C1078.749512,817.035522 1096.068848,816.790039 1112.764526,811.048950 
	C1114.577026,810.425720 1116.455688,809.997070 1118.280151,809.405762 
	C1122.529297,808.028442 1126.950073,807.465454 1130.622925,804.174622 
	C1132.789307,802.233521 1138.503540,802.463196 1138.953247,800.752258 
	C1140.022461,796.684143 1143.250000,798.745422 1145.014038,797.272705 
	C1147.833618,794.918762 1151.040283,793.028259 1154.974731,790.330750 
	C1154.945923,790.503662 1155.150269,789.273376 1155.195679,789.000183 
	C1158.718628,787.187500 1161.465698,785.774048 1164.246948,784.343018 
	C1166.071777,782.140259 1167.958374,779.863159 1170.246948,777.100647 
	C1170.953491,777.038635 1172.379150,776.913574 1173.816528,776.787476 
	C1173.960693,775.052429 1174.079712,773.619751 1174.198853,772.187134 
	C1174.666016,772.469604 1175.133179,772.752014 1175.600342,773.034424 
	C1177.782837,769.973389 1179.965210,766.912354 1182.745605,763.012695 
	C1182.604492,763.042053 1183.807983,762.791748 1185.011597,762.541443 
	C1184.651611,762.168762 1184.291748,761.796082 1183.931763,761.423401 
	C1185.268799,759.712402 1186.915527,758.156311 1187.868042,756.252991 
	C1189.198730,753.594177 1190.029297,750.682556 1191.040039,747.866943 
	C1191.794800,745.764160 1191.867554,742.821777 1193.344727,741.690247 
	C1197.023926,738.871887 1197.722900,735.244202 1198.063599,731.145508 
	C1198.249878,728.902893 1198.671021,726.643127 1199.296753,724.480957 
	C1200.765015,719.408142 1203.192383,714.483765 1203.822388,709.327148 
	C1204.820557,701.156311 1204.929688,692.845520 1204.954468,684.592529 
	C1205.061157,649.092896 1204.790894,613.591125 1205.073364,578.093445 
	C1205.261719,554.437439 1204.195312,531.013916 1197.083862,508.224182 
	C1196.607544,506.697540 1197.136353,504.833862 1196.580322,503.359802 
	C1194.882935,498.859802 1192.213623,494.624268 1191.175537,490.004272 
	C1189.936646,484.490326 1187.140137,479.871429 1184.788696,474.950317 
	C1183.377686,471.997131 1182.322266,468.875977 1180.980103,465.887268 
	C1179.221313,461.970673 1177.616455,457.942261 1175.412109,454.283142 
	C1173.876465,451.734192 1169.840332,445.268555 1169.580322,443.162323 
	C1168.523926,443.050842 1167.428223,442.935242 1167.219604,442.913208 
	C1164.312622,437.804474 1161.746460,433.294891 1159.018066,428.500000 
	C1157.109619,426.899536 1154.846313,425.001526 1152.100098,422.698578 
	C1152.031494,422.005524 1151.889648,420.574615 1151.747925,419.143677 
	C1151.406372,419.362915 1151.064819,419.582153 1150.723267,419.801392 
	C1149.478027,418.417633 1148.232788,417.033905 1146.463623,415.067932 
	C1146.069580,415.037964 1144.637085,414.929077 1144.610352,414.927032 
	C1141.896606,411.895782 1140.062744,409.847534 1137.463257,406.944031 
	C1137.152100,406.944031 1135.729614,406.944031 1134.197876,406.944031 
	C1134.045532,405.505096 1133.929688,404.411835 1133.778320,402.982361 
	C1132.201904,402.982361 1130.767212,402.982361 1129.332642,402.982361 
	C1129.596191,402.516388 1129.859741,402.050415 1130.123291,401.584442 
	C1127.103516,399.348328 1124.083740,397.112213 1121.063965,394.876099 
	C1120.796265,395.165497 1120.528564,395.454895 1120.260864,395.744293 
	C1120.067139,394.520508 1119.873413,393.296722 1119.679688,392.072937 
	C1119.358765,392.344940 1119.037842,392.616943 1118.716919,392.888977 
	C1116.967896,391.595978 1115.364014,389.997162 1113.435547,389.082367 
	C1110.607544,387.740814 1106.114624,387.745667 1104.867065,385.659973 
	C1101.701904,380.368256 1095.699341,381.343994 1091.430786,378.564026 
	C1086.355957,375.258972 1078.646240,375.175140 1072.069336,375.135010 
	C1029.071045,374.872650 986.070007,374.932983 943.070923,375.123077 
	C939.506226,375.138824 935.961304,376.942841 932.385254,377.827087 
	C929.067017,378.647552 925.719360,379.348999 922.000000,380.189819 
	C922.000000,377.682037 922.000000,375.869476 922.000000,374.056946 
	C922.000000,302.890411 922.120972,231.723419 921.864868,160.557816 
	C921.828003,150.310471 919.806946,140.082748 919.010254,129.822174 
	C918.196533,119.341362 917.386719,108.834702 917.290039,98.332779 
	C917.225952,91.374207 918.420410,84.404053 919.058960,77.356606 
	C782.146423,77.356606 645.609802,77.356606 508.675842,77.356606 
	C508.675842,82.127808 508.675842,86.541580 508.675842,91.332260 
	C503.864380,91.332260 499.451355,91.332260 494.839264,91.332260 
	C494.839264,97.690582 494.839264,103.648834 494.839264,109.988968 
	C491.882324,109.988968 489.138916,109.988968 486.202667,109.988968 
	C486.202667,248.118500 486.202667,385.859497 486.202667,524.158142 
	C497.217590,524.158142 508.053650,524.158142 520.065552,524.158142 
	C518.149231,526.193481 517.132202,527.410706 515.977112,528.478455 
	C507.837311,536.002808 499.830780,543.682434 491.468445,550.952148 
	C481.362396,559.737732 471.446259,568.869446 460.564331,576.608948 
	C436.233582,593.913574 410.018372,607.751831 381.453796,616.967712 
	C364.637207,622.393372 347.321503,624.773315 329.856171,625.856384 
	C316.105682,626.709106 302.487885,624.994019 288.872437,622.190369 
	C259.494781,616.140930 234.680679,601.973755 213.217880,581.578552 
	C203.573761,572.414185 195.352097,561.810791 189.195587,550.055664 
	C183.657806,539.481934 179.036148,528.318359 175.125336,517.028748 
	C169.449081,500.642822 168.893433,483.496887 168.815750,466.228912 
	C168.743393,450.140961 172.400146,434.866516 177.635422,420.099670 
	C187.995331,390.878113 205.615936,366.599854 230.111862,347.269318 
	C249.910522,331.645599 271.999420,320.445435 295.299744,311.243958 
	C315.688599,303.192169 337.007385,298.878479 358.575256,296.243103 
	C371.673004,294.642700 385.052399,295.051819 398.302734,295.112396 
	C405.641266,295.145966 412.969696,296.383484 420.311829,296.961548 
	C426.131409,297.419739 431.964905,297.700287 437.336700,298.031616 
	C438.596497,283.387024 439.833282,269.423645 440.986664,255.453339 
	C441.721313,246.554718 442.479614,237.653976 442.968933,228.739990 
	C444.065002,208.771637 445.004211,188.794617 445.997498,168.820648 
	C446.349792,161.735764 446.569580,154.642639 447.035492,147.565491 
	C447.677704,137.810440 448.495850,128.066971 449.248230,118.192581 
	C447.980774,118.098114 447.328430,118.004784 446.676392,118.007225 
	C359.590637,118.333611 272.504883,118.666122 185.419189,119.011253 
	C184.443192,119.015121 182.701797,118.974846 182.607727,119.313515 
	C181.310364,123.984215 177.595428,121.703224 174.969666,121.912750 
	C170.849884,122.241493 166.684616,122.000000 162.180695,122.000000 
	C162.056549,123.378975 161.947647,124.588623 161.807373,126.146866 
	C155.020798,126.146866 148.588547,126.146866 142.201691,126.146866 
	C142.032959,127.949440 141.900574,129.363602 141.734665,131.136017 
	C135.038086,131.136017 128.612427,131.136017 122.128242,131.136017 
	C122.017632,133.272812 121.927124,135.021164 121.817543,137.137985 
	C115.045578,137.137985 108.623581,137.137985 101.836609,137.137985 
	C101.836609,139.607224 101.836609,141.681046 101.836609,144.141693 
	C95.048309,144.141693 88.630890,144.141693 81.838440,144.141693 
	C81.838440,147.281128 81.838440,150.032425 81.838440,153.153229 
	C75.708954,153.153229 69.959007,153.153229 63.831665,153.153229 
	C63.831665,156.961166 63.831665,160.374786 63.831665,164.168549 
	C58.030060,164.168549 52.614502,164.168549 46.820438,164.168549 
	C46.820438,168.978531 46.820438,173.396042 46.820438,178.186829 
	C41.680889,178.186829 36.931374,178.186829 31.807400,178.186829 
	C31.807400,183.996719 31.807400,189.410492 31.807400,195.205322 
	C27.665668,195.205322 23.919373,195.205322 19.797741,195.205322 
	C19.797741,201.682022 19.797741,207.768356 19.797741,214.223358 
	C16.659018,214.223358 13.916059,214.223358 10.804365,214.223358 
	C10.804365,220.700836 10.804365,226.796127 10.804365,232.837112 
	C8.662291,232.986496 6.910225,233.108673 4.847796,233.252487 
	C4.847796,240.365051 4.847796,247.130600 4.847796,254.000000 
	C3.328249,254.000000 2.164124,254.000000 1.000000,254.000000 
	C1.000000,169.678726 1.000000,85.357452 1.000000,1.018088 
	C624.232117,1.018088 1247.464233,1.018088 1871.000000,1.018088 
	C1871.000000,254.029297 1871.000000,507.058716 1870.630127,760.427368 
	C1869.358521,757.185852 1868.560669,753.575073 1867.536255,750.029785 
	C1864.067505,738.025085 1860.408447,726.074463 1857.029297,714.045044 
	C1853.123291,700.140381 1849.407593,686.181824 1845.667480,672.231079 
	C1843.713623,664.942566 1841.824829,657.635315 1840.012939,650.310242 
	C1836.859131,637.560181 1833.787720,624.789734 1830.675903,612.003052 
	C1829.502930,612.003052 1828.387207,611.656433 1827.902100,612.062744 
	C1825.722778,613.887756 1823.618652,615.686035 1820.491821,615.264771 
	C1820.373413,615.248779 1820.170654,615.418945 1820.099854,615.551758 
	C1817.553345,620.327454 1811.807007,619.721802 1807.951782,622.712585 
	C1803.901978,625.854187 1797.714600,626.091125 1793.176147,628.796509 
	C1789.164185,631.187988 1784.835327,632.998535 1780.877319,635.648865 
	C1775.483398,639.260864 1768.620117,640.687805 1762.370850,643.008728 
	C1759.973267,643.899231 1757.346558,644.340637 1755.150757,645.570068 
	C1751.221069,647.770386 1747.462280,650.253723 1742.901245,650.964539 
	C1741.298340,651.214294 1739.472778,650.933411 1738.099854,651.608582 
	C1730.929077,655.134460 1723.576538,657.891235 1715.468628,657.973389 
	C1713.702759,657.991211 1711.932129,657.685181 1710.166382,657.502869 
	C1708.748657,657.356506 1706.905884,656.508179 1705.984131,657.104065 
	C1693.906616,664.912231 1680.913330,664.620117 1667.937012,660.848755 
	C1654.249146,656.870544 1642.443237,649.532837 1633.986938,637.674744 
	C1621.608154,620.316345 1618.188232,600.884399 1619.845093,579.907898 
	C1621.013794,565.114258 1626.111816,551.787964 1634.279053,540.044128 
	C1641.015625,530.357178 1649.395996,521.500183 1658.315796,513.730713 
	C1667.633667,505.614502 1677.902588,498.181671 1688.782227,492.372314 
	C1701.887085,485.374695 1716.116333,480.709259 1730.812500,477.480377 
	C1749.318970,473.414337 1767.903076,470.476257 1786.850464,470.016724 
	C1791.467529,469.904724 1796.089600,470.000000 1800.505127,470.000000 
	C1801.044800,465.808960 1801.689819,462.113495 1801.970093,458.390625 
	C1803.043335,444.139893 1804.001099,429.880493 1804.998779,415.624084 
	C1806.001099,401.300903 1806.923584,386.971527 1808.039673,372.657227 
	C1808.457275,367.301575 1809.500488,361.995361 1809.936646,356.640350 
	C1810.463989,350.167755 1810.649780,343.667389 1810.992554,337.000000 
	C1792.527832,337.000000 1774.706909,336.870605 1756.888672,337.034454 
	C1736.968628,337.217621 1717.049683,337.602356 1697.133545,338.045929 
	C1692.225098,338.155273 1687.290771,338.575623 1682.436157,339.304688 
	C1673.156250,340.698395 1663.906982,342.319122 1654.679932,344.033875 
	C1648.354736,345.209381 1641.991211,346.365204 1635.822998,348.146698 
	C1629.227173,350.051605 1622.837402,352.672058 1616.363525,354.996277 
	C1611.296631,356.815369 1606.244507,358.675385 1601.173706,360.483459 
	C1599.217896,361.180756 1596.057007,361.251312 1595.474243,362.531189 
	C1593.715454,366.394409 1589.829224,365.228821 1587.238159,366.911865 
	C1584.760742,368.521179 1579.882935,368.941193 1579.461060,370.699768 
	C1578.513794,374.648865 1575.615356,372.179657 1574.069214,373.493256 
	C1571.164795,375.961029 1567.923218,378.032074 1564.005737,380.856476 
	C1564.045166,380.561951 1563.898926,381.656372 1563.836670,382.121490 
	C1560.401001,383.816711 1557.477295,385.259277 1554.110107,386.920685 
	C1554.053101,387.466705 1553.938965,388.562225 1553.883911,389.089844 
	C1550.493042,390.759247 1547.566772,392.199860 1545.011963,393.457642 
	C1542.867310,395.967896 1540.959717,398.200867 1538.630249,400.927490 
	C1537.963257,400.993958 1536.540039,401.135834 1535.096069,401.279785 
	C1535.024536,402.892395 1534.966675,404.192566 1534.973389,404.041626 
	C1531.390259,407.625092 1528.632324,410.383270 1525.052612,413.963409 
	C1525.070068,413.962097 1523.638062,414.070618 1522.206055,414.179138 
	C1522.415527,414.507202 1522.624878,414.835266 1522.834229,415.163330 
	C1521.468262,416.432251 1520.102295,417.701202 1518.262207,419.410553 
	C1517.187378,421.590546 1515.744751,424.516357 1514.653076,426.730255 
	C1512.036011,429.081421 1509.993530,430.916443 1507.135864,433.483795 
	C1507.049438,433.863617 1507.080688,435.658752 1506.263672,436.892059 
	C1504.787354,439.120575 1501.367065,440.971802 1501.306641,443.054474 
	C1501.135620,448.953491 1496.940918,453.194916 1494.291382,456.964478 
	C1491.298462,461.222504 1491.275024,466.442841 1487.423706,470.534332 
	C1483.621582,474.573517 1482.736450,481.547272 1481.096802,487.381287 
	C1479.402832,493.409180 1477.891479,499.557587 1477.102661,505.755371 
	C1475.741211,516.451599 1474.216919,527.221069 1474.137085,537.969971 
	C1473.809204,582.133850 1473.889893,626.302063 1474.119019,670.467224 
	C1474.153320,677.074341 1475.443848,683.740356 1476.755127,690.257996 
	C1478.237915,697.628479 1480.400024,704.862244 1482.464355,712.927734 
	C1482.394409,712.917847 1483.609375,713.089539 1483.814209,713.118469 
	C1486.776978,718.350830 1489.333008,722.864807 1492.195435,727.919861 
	C1492.465698,727.948303 1493.565796,728.064026 1494.093994,728.119629 
	C1495.764771,731.515198 1497.204102,734.440430 1498.878540,737.843567 
	C1499.504761,737.946533 1500.725708,738.147217 1501.882935,738.337463 
	C1501.983276,739.954224 1502.063843,741.253784 1502.088257,741.647827 
	C1503.775269,743.128235 1504.867676,744.129089 1506.006348,745.074524 
	C1507.172241,746.042480 1508.383423,746.956055 1509.881470,748.134888 
	C1509.971313,749.004883 1510.118286,750.428833 1510.281860,752.012451 
	C1511.861206,752.012451 1513.157593,752.012451 1514.453857,752.012451 
	C1514.208740,752.399841 1513.963623,752.787170 1513.718506,753.174561 
	C1516.843506,755.543396 1519.968384,757.912292 1523.093384,760.281128 
	C1523.337891,760.000427 1523.582275,759.719666 1523.826782,759.438965 
	C1523.957275,760.532898 1524.087891,761.626892 1524.258301,763.054810 
	C1525.841797,763.054810 1527.268799,763.054810 1528.799561,763.054810 
	C1528.954224,764.495178 1529.071655,765.589966 1529.148804,766.308594 
	C1532.534058,767.748840 1537.464722,768.384338 1538.186646,770.473999 
	C1539.483521,774.227234 1542.434692,772.044434 1543.932739,773.601990 
	C1545.329590,775.054321 1551.639893,778.760864 1552.989380,779.010437 
	C1553.615356,779.126099 1554.317017,779.191223 1554.824951,779.523132 
	C1557.022583,780.958557 1558.967285,783.049805 1561.358276,783.869446 
	C1568.152832,786.198669 1575.126343,788.003906 1582.018921,790.050171 
	C1588.620361,792.010010 1595.089355,794.943054 1601.827148,795.808411 
	C1616.917969,797.746765 1632.125732,799.585510 1647.311035,799.817261 
	C1684.135498,800.379272 1720.975098,799.855042 1757.807129,800.046692 
	C1786.339844,800.195190 1814.829834,800.091553 1843.042725,795.007629 
	C1847.506470,794.203125 1852.067749,793.817749 1856.448242,792.704712 
	C1861.379028,791.451904 1866.156128,789.594421 1871.000000,788.000000 
M1315.996216,175.298401 
	C1313.156494,176.133957 1310.316895,176.969498 1306.811523,178.000916 
	C1306.811523,207.573883 1306.811523,237.730438 1306.811523,268.576324 
	C1304.055420,265.852692 1301.958130,263.780212 1299.172241,261.027191 
	C1299.063599,261.021332 1297.763916,260.951508 1297.253784,260.924103 
	C1294.901245,258.113495 1293.006470,255.849808 1290.704468,253.099609 
	C1290.013550,253.032593 1288.583740,252.893860 1287.153931,252.755142 
	C1287.370850,252.412766 1287.587769,252.070389 1287.804810,251.728012 
	C1286.419800,250.488510 1285.034790,249.249008 1282.877197,247.318130 
	C1282.877197,246.093506 1282.877197,243.662872 1282.877197,241.042572 
	C1279.870483,241.042572 1277.244873,241.042572 1274.619263,241.042572 
	C1274.819824,240.696869 1275.020386,240.351166 1275.220947,240.005463 
	C1273.390259,238.655777 1271.559448,237.306076 1270.458252,236.494232 
	C1267.916626,233.300522 1265.897461,230.594055 1263.683472,228.057663 
	C1262.682739,226.911301 1261.294678,226.103180 1260.082275,225.141586 
	C1260.273438,224.766098 1260.464478,224.390594 1260.655518,224.015106 
	C1259.230591,224.015106 1257.805664,224.015106 1257.488037,224.015106 
	C1254.849609,220.975418 1252.930908,218.764801 1250.574707,216.050293 
	C1250.055176,216.019791 1248.755859,215.943512 1248.902222,215.952103 
	C1246.604492,213.698151 1245.160278,212.281418 1242.801514,209.967590 
	C1242.801514,208.996643 1242.801514,206.576752 1242.801514,203.968842 
	C1239.779297,203.968842 1237.150024,203.968842 1234.282349,203.968842 
	C1234.083374,202.582657 1233.908936,201.367981 1233.740234,200.193741 
	C1232.024536,200.033096 1230.592041,199.898956 1229.159424,199.764816 
	C1229.388428,199.482895 1229.617554,199.200958 1229.846558,198.919022 
	C1226.569580,195.557846 1223.292480,192.196671 1220.015503,188.835495 
	C1219.955933,188.929642 1219.896240,189.023773 1219.836670,189.117920 
	C1216.864868,186.472794 1213.892944,183.827682 1210.921143,181.182571 
	C1211.163940,180.791885 1211.406738,180.401184 1211.649536,180.010498 
	C1210.224487,180.010498 1208.799561,180.010498 1208.697021,180.010498 
	C1204.551758,175.658051 1201.205444,172.144547 1197.297241,168.040985 
	C1196.950195,168.004837 1195.527832,167.856689 1194.097290,167.707672 
	C1194.023071,166.096161 1193.963257,164.796265 1193.968872,164.917587 
	C1191.735962,162.647415 1190.311523,161.199142 1187.938843,158.786819 
	C1186.996338,159.298325 1184.797241,160.119278 1183.045288,161.505432 
	C1174.235474,168.475861 1165.667969,175.756256 1156.779297,182.622208 
	C1143.314697,193.022797 1129.952637,203.596298 1116.017090,213.338425 
	C1086.661011,233.860809 1058.545166,256.253479 1027.235229,273.834564 
	C1022.029846,276.757446 1023.350220,279.874786 1022.938416,284.011047 
	C1026.118896,284.011047 1028.877441,284.011047 1032.007690,284.011047 
	C1032.007690,286.801392 1032.007690,289.215637 1032.007690,291.993866 
	C1035.143311,291.993866 1037.904175,291.993866 1040.792603,291.993866 
	C1040.942383,293.441467 1041.055420,294.534241 1041.111328,295.074890 
	C1044.500977,296.750305 1047.409180,298.187714 1049.035645,298.991638 
	C1051.404663,301.310089 1052.851196,302.725800 1055.207764,305.032104 
	C1055.207764,306.012177 1055.207764,308.423096 1055.207764,311.035278 
	C1058.568604,311.035278 1061.534302,311.035278 1064.500000,311.035278 
	C1064.259644,311.422821 1064.019287,311.810364 1063.778809,312.197906 
	C1066.889282,314.555481 1069.999634,316.913086 1073.109985,319.270660 
	C1073.439941,319.002777 1073.769897,318.734894 1074.099854,318.466980 
	C1074.099854,320.885681 1074.099854,323.304352 1074.099854,325.936218 
	C1077.099365,325.936218 1079.726074,325.936218 1082.678589,325.936218 
	C1082.886597,327.312561 1083.069092,328.520142 1083.029663,328.259125 
	C1086.604614,330.992706 1089.164673,332.950195 1092.151855,335.234344 
	C1092.151855,336.719269 1092.151855,338.671295 1092.151855,340.999817 
	C1095.444214,340.999817 1098.535645,340.999817 1101.999390,340.999817 
	C1101.999390,343.784485 1101.999390,346.209564 1101.999390,348.998169 
	C1105.123169,348.998169 1107.873047,348.998169 1110.997070,348.998169 
	C1110.997070,351.782379 1110.997070,354.208313 1110.997070,356.984375 
	C1114.131958,356.984375 1116.892578,356.984375 1119.788086,356.984375 
	C1119.937744,358.420441 1120.052002,359.518066 1120.087769,359.861481 
	C1123.342041,361.654022 1126.055054,363.148468 1129.223022,364.893524 
	C1129.223022,367.034332 1129.223022,369.451080 1129.223022,372.055359 
	C1132.249268,372.055359 1134.879272,372.055359 1138.019043,372.055359 
	C1136.695068,376.847168 1140.399658,375.891296 1143.175415,376.221954 
	C1143.175415,380.311066 1143.175415,384.063843 1143.175415,386.960846 
	C1149.552002,388.195435 1155.391724,389.326080 1161.225342,390.455536 
	C1161.225342,394.182343 1161.225342,396.454163 1161.225342,399.105957 
	C1164.573486,399.105957 1167.658081,399.105957 1171.113525,399.105957 
	C1171.113525,401.906067 1171.113525,404.319305 1171.113525,407.107117 
	C1174.242188,407.107117 1176.992310,407.107117 1180.109741,407.107117 
	C1180.109741,409.568268 1180.109741,411.645844 1180.109741,413.937927 
	C1183.104004,413.937927 1185.730713,413.937927 1188.682617,413.937927 
	C1188.887939,415.304138 1189.070312,416.516907 1189.031006,416.255890 
	C1192.608521,418.994202 1195.166626,420.952301 1198.157959,423.242065 
	C1198.157959,425.059296 1198.157959,427.344208 1198.157959,429.990540 
	C1201.480103,429.990540 1204.580200,429.990540 1207.680176,429.990540 
	C1207.407715,430.481903 1207.135254,430.973297 1206.862793,431.464661 
	C1210.032227,433.739685 1213.201660,436.014709 1217.235596,438.910309 
	C1217.235596,440.051300 1217.235596,442.466003 1217.235596,445.066528 
	C1220.262939,445.066528 1222.894653,445.066528 1226.171997,445.066528 
	C1224.198364,450.327301 1228.159668,448.742828 1229.897949,449.808350 
	C1231.332764,451.236145 1232.767578,452.663971 1234.202393,454.091766 
	C1234.516846,453.902802 1234.831299,453.713806 1235.145752,453.524841 
	C1235.145752,455.603546 1235.145752,457.682251 1235.145752,459.973694 
	C1238.485107,459.973694 1241.448730,459.973694 1244.785522,459.973694 
	C1244.937256,461.360992 1245.069702,462.572510 1245.096924,462.821045 
	C1248.513794,464.744873 1251.210205,466.262970 1254.175659,467.932617 
	C1254.175659,470.084473 1254.175659,472.367249 1254.175659,475.008240 
	C1257.497803,475.008240 1260.602539,475.008240 1263.707153,475.008240 
	C1263.437866,475.484070 1263.168457,475.959900 1262.899048,476.435699 
	C1265.910889,478.668579 1268.922729,480.901489 1271.934570,483.134369 
	C1272.202637,482.837616 1272.470825,482.540863 1272.738892,482.244110 
	C1272.931030,483.467041 1273.123047,484.690002 1273.301880,485.829132 
	C1275.050659,485.993347 1276.459229,486.125610 1278.223877,486.291290 
	C1278.223877,489.038177 1278.223877,491.448517 1278.223877,492.785065 
	C1283.244507,494.461426 1287.562744,495.903229 1291.880859,497.345001 
	C1291.693726,497.580566 1291.506592,497.816101 1291.319336,498.051666 
	C1293.163574,500.119263 1295.007690,502.186859 1297.442627,504.916870 
	C1297.890747,504.962463 1299.322998,505.108124 1300.580811,505.236053 
	C1300.041016,512.497070 1299.256592,519.486938 1299.050659,526.493774 
	C1298.457031,546.686279 1296.895020,566.791077 1295.349487,586.933960 
	C1293.273438,613.990601 1293.665405,641.236755 1293.003662,668.401672 
	C1292.971191,669.734009 1293.087158,671.075378 1292.976685,672.399414 
	C1291.668457,688.072815 1290.198120,703.733887 1289.042847,719.418335 
	C1288.160400,731.399109 1287.713135,743.411438 1286.968506,755.403320 
	C1286.773193,758.548767 1286.191895,761.670227 1285.704468,765.449280 
	C1338.345703,749.456116 1386.087402,724.232910 1435.540894,704.045593 
	C1436.377319,692.711670 1437.122559,681.719604 1438.014404,670.739441 
	C1439.286255,655.080505 1440.736572,639.435974 1441.973511,623.774414 
	C1442.775635,613.616638 1443.300781,603.437195 1444.007935,593.271545 
	C1444.976318,579.350037 1445.944336,565.428101 1447.016357,551.514343 
	C1447.934570,539.596130 1449.068481,527.694519 1449.980713,515.775940 
	C1451.057861,501.704132 1451.999268,487.621948 1452.999390,473.544281 
	C1453.999634,459.466644 1455.011719,445.389801 1455.995850,431.311066 
	C1456.683105,421.477692 1457.319702,411.640747 1458.001831,401.807007 
	C1458.990356,387.553131 1459.986084,373.299683 1461.003906,359.047882 
	C1461.985718,345.302185 1463.380859,331.573029 1463.893555,317.810455 
	C1464.425171,303.540527 1464.290649,289.336304 1466.736694,275.105225 
	C1468.703857,263.661011 1468.384521,251.817627 1468.986816,240.146561 
	C1469.709473,226.147507 1470.333374,212.143341 1471.000000,198.141373 
	C1471.666626,184.139404 1472.433105,170.141251 1472.970093,156.134308 
	C1473.445923,143.723297 1473.591187,131.299850 1474.026855,118.886971 
	C1474.314209,110.698311 1474.857666,102.518639 1475.328125,93.540764 
	C1470.598755,94.094315 1466.748169,94.724518 1462.873169,94.967621 
	C1445.791260,96.039307 1428.699219,96.951286 1411.617065,98.019783 
	C1402.774170,98.572906 1393.951782,99.465080 1385.106812,99.970322 
	C1366.025635,101.060272 1346.933960,101.969391 1327.850952,103.028351 
	C1324.537842,103.212219 1321.245361,103.768311 1318.511353,104.086388 
	C1317.978882,113.783493 1317.330444,122.687141 1317.036743,131.602478 
	C1316.567261,145.846985 1316.333374,160.099274 1315.996216,175.298401 
M1395.819214,899.027161 
	C1389.014160,901.931702 1382.209106,904.836243 1375.306396,907.782471 
	C1386.869019,907.782471 1398.272217,907.782471 1410.038940,907.782471 
	C1410.038940,905.498169 1410.038940,903.424988 1410.038940,900.993652 
	C1412.814575,900.993652 1415.231445,900.993652 1417.628906,900.993652 
	C1418.146362,897.481750 1418.606201,894.360657 1419.123291,890.851501 
	C1411.259521,893.700317 1403.942383,896.351074 1395.819214,899.027161 
z"/>
<path fill="#000000" opacity="1.000000" stroke="none" 
	d="
M1.000000,254.468658 
	C2.164124,254.000000 3.328249,254.000000 4.847796,254.000000 
	C4.847796,247.130600 4.847796,240.365051 4.847796,233.252487 
	C6.910225,233.108673 8.662291,232.986496 10.804365,232.837112 
	C10.804365,226.796127 10.804365,220.700836 10.804365,214.223358 
	C13.916059,214.223358 16.659018,214.223358 19.797741,214.223358 
	C19.797741,207.768356 19.797741,201.682022 19.797741,195.205322 
	C23.919373,195.205322 27.665668,195.205322 31.807400,195.205322 
	C31.807400,189.410492 31.807400,183.996719 31.807400,178.186829 
	C36.931374,178.186829 41.680889,178.186829 46.820438,178.186829 
	C46.820438,173.396042 46.820438,168.978531 46.820438,164.168549 
	C52.614502,164.168549 58.030060,164.168549 63.831665,164.168549 
	C63.831665,160.374786 63.831665,156.961166 63.831665,153.153229 
	C69.959007,153.153229 75.708954,153.153229 81.838440,153.153229 
	C81.838440,150.032425 81.838440,147.281128 81.838440,144.141693 
	C88.630890,144.141693 95.048309,144.141693 101.836609,144.141693 
	C101.836609,141.681046 101.836609,139.607224 101.836609,137.137985 
	C108.623581,137.137985 115.045578,137.137985 121.817543,137.137985 
	C121.927124,135.021164 122.017632,133.272812 122.128242,131.136017 
	C128.612427,131.136017 135.038086,131.136017 141.734665,131.136017 
	C141.900574,129.363602 142.032959,127.949440 142.201691,126.146866 
	C148.588547,126.146866 155.020798,126.146866 161.807373,126.146866 
	C161.947647,124.588623 162.056549,123.378975 162.180695,122.000000 
	C166.684616,122.000000 170.849884,122.241493 174.969666,121.912750 
	C177.595428,121.703224 181.310364,123.984215 182.607727,119.313515 
	C182.701797,118.974846 184.443192,119.015121 185.419189,119.011253 
	C272.504883,118.666122 359.590637,118.333611 446.676392,118.007225 
	C447.328430,118.004784 447.980774,118.098114 449.248230,118.192581 
	C448.495850,128.066971 447.677704,137.810440 447.035492,147.565491 
	C446.569580,154.642639 446.349792,161.735764 445.997498,168.820648 
	C445.004211,188.794617 444.065002,208.771637 442.968933,228.739990 
	C442.479614,237.653976 441.721313,246.554718 440.986664,255.453339 
	C439.833282,269.423645 438.596497,283.387024 437.336700,298.031616 
	C431.964905,297.700287 426.131409,297.419739 420.311829,296.961548 
	C412.969696,296.383484 405.641266,295.145966 398.302734,295.112396 
	C385.052399,295.051819 371.673004,294.642700 358.575256,296.243103 
	C337.007385,298.878479 315.688599,303.192169 295.299744,311.243958 
	C271.999420,320.445435 249.910522,331.645599 230.111862,347.269318 
	C205.615936,366.599854 187.995331,390.878113 177.635422,420.099670 
	C172.400146,434.866516 168.743393,450.140961 168.815750,466.228912 
	C168.893433,483.496887 169.449081,500.642822 175.125336,517.028748 
	C179.036148,528.318359 183.657806,539.481934 189.195587,550.055664 
	C195.352097,561.810791 203.573761,572.414185 213.217880,581.578552 
	C234.680679,601.973755 259.494781,616.140930 288.872437,622.190369 
	C302.487885,624.994019 316.105682,626.709106 329.856171,625.856384 
	C347.321503,624.773315 364.637207,622.393372 381.453796,616.967712 
	C410.018372,607.751831 436.233582,593.913574 460.564331,576.608948 
	C471.446259,568.869446 481.362396,559.737732 491.468445,550.952148 
	C499.830780,543.682434 507.837311,536.002808 515.977112,528.478455 
	C517.132202,527.410706 518.149231,526.193481 520.065552,524.158142 
	C508.053650,524.158142 497.217590,524.158142 486.202667,524.158142 
	C486.202667,385.859497 486.202667,248.118500 486.202667,109.988968 
	C489.138916,109.988968 491.882324,109.988968 494.839264,109.988968 
	C494.839264,103.648834 494.839264,97.690582 494.839264,91.332260 
	C499.451355,91.332260 503.864380,91.332260 508.675842,91.332260 
	C508.675842,86.541580 508.675842,82.127808 508.675842,77.356606 
	C645.609802,77.356606 782.146423,77.356606 919.058960,77.356606 
	C918.420410,84.404053 917.225952,91.374207 917.290039,98.332779 
	C917.386719,108.834702 918.196533,119.341362 919.010254,129.822174 
	C919.806946,140.082748 921.828003,150.310471 921.864868,160.557816 
	C922.120972,231.723419 922.000000,302.890411 922.000000,374.056946 
	C922.000000,375.869476 922.000000,377.682037 922.000000,380.189819 
	C925.719360,379.348999 929.067017,378.647552 932.385254,377.827087 
	C935.961304,376.942841 939.506226,375.138824 943.070923,375.123077 
	C986.070007,374.932983 1029.071045,374.872650 1072.069336,375.135010 
	C1078.646240,375.175140 1086.355957,375.258972 1091.430786,378.564026 
	C1095.699341,381.343994 1101.701904,380.368256 1104.867065,385.659973 
	C1106.114624,387.745667 1110.607544,387.740814 1113.435547,389.082367 
	C1115.364014,389.997162 1116.967896,391.595978 1118.716919,392.888977 
	C1119.037842,392.616943 1119.358765,392.344940 1119.679688,392.072937 
	C1119.873413,393.296722 1120.067139,394.520508 1120.260864,395.744293 
	C1120.528564,395.454895 1120.796265,395.165497 1121.063965,394.876099 
	C1124.083740,397.112213 1127.103516,399.348328 1130.123291,401.584442 
	C1129.859741,402.050415 1129.596191,402.516388 1129.332642,402.982361 
	C1130.767212,402.982361 1132.201904,402.982361 1133.778320,402.982361 
	C1133.929688,404.411835 1134.045532,405.505096 1134.197876,406.944031 
	C1135.729614,406.944031 1137.152100,406.944031 1137.463257,406.944031 
	C1140.062744,409.847534 1141.896606,411.895782 1144.610352,414.927032 
	C1144.637085,414.929077 1146.069580,415.037964 1146.463623,415.067932 
	C1148.232788,417.033905 1149.478027,418.417633 1150.723267,419.801392 
	C1151.064819,419.582153 1151.406372,419.362915 1151.747925,419.143677 
	C1151.889648,420.574615 1152.031494,422.005524 1152.100098,422.698578 
	C1154.846313,425.001526 1157.109619,426.899536 1159.018066,428.500000 
	C1161.746460,433.294891 1164.312622,437.804474 1167.219604,442.913208 
	C1167.428223,442.935242 1168.523926,443.050842 1169.580322,443.162323 
	C1169.840332,445.268555 1173.876465,451.734192 1175.412109,454.283142 
	C1177.616455,457.942261 1179.221313,461.970673 1180.980103,465.887268 
	C1182.322266,468.875977 1183.377686,471.997131 1184.788696,474.950317 
	C1187.140137,479.871429 1189.936646,484.490326 1191.175537,490.004272 
	C1192.213623,494.624268 1194.882935,498.859802 1196.580322,503.359802 
	C1197.136353,504.833862 1196.607544,506.697540 1197.083862,508.224182 
	C1204.195312,531.013916 1205.261719,554.437439 1205.073364,578.093445 
	C1204.790894,613.591125 1205.061157,649.092896 1204.954468,684.592529 
	C1204.929688,692.845520 1204.820557,701.156311 1203.822388,709.327148 
	C1203.192383,714.483765 1200.765015,719.408142 1199.296753,724.480957 
	C1198.671021,726.643127 1198.249878,728.902893 1198.063599,731.145508 
	C1197.722900,735.244202 1197.023926,738.871887 1193.344727,741.690247 
	C1191.867554,742.821777 1191.794800,745.764160 1191.040039,747.866943 
	C1190.029297,750.682556 1189.198730,753.594177 1187.868042,756.252991 
	C1186.915527,758.156311 1185.268799,759.712402 1183.931763,761.423401 
	C1184.291748,761.796082 1184.651611,762.168762 1185.011597,762.541443 
	C1183.807983,762.791748 1182.604492,763.042053 1182.745605,763.012695 
	C1179.965210,766.912354 1177.782837,769.973389 1175.600342,773.034424 
	C1175.133179,772.752014 1174.666016,772.469604 1174.198853,772.187134 
	C1174.079712,773.619751 1173.960693,775.052429 1173.816528,776.787476 
	C1172.379150,776.913574 1170.953491,777.038635 1170.246948,777.100647 
	C1167.958374,779.863159 1166.071777,782.140259 1164.246948,784.343018 
	C1161.465698,785.774048 1158.718628,787.187500 1155.195679,789.000183 
	C1155.150269,789.273376 1154.945923,790.503662 1154.974731,790.330750 
	C1151.040283,793.028259 1147.833618,794.918762 1145.014038,797.272705 
	C1143.250000,798.745422 1140.022461,796.684143 1138.953247,800.752258 
	C1138.503540,802.463196 1132.789307,802.233521 1130.622925,804.174622 
	C1126.950073,807.465454 1122.529297,808.028442 1118.280151,809.405762 
	C1116.455688,809.997070 1114.577026,810.425720 1112.764526,811.048950 
	C1096.068848,816.790039 1078.749512,817.035522 1061.379761,817.014038 
	C1024.379883,816.968201 987.375916,817.300659 950.382385,816.815552 
	C939.376221,816.671326 928.369995,814.515320 917.423645,812.880432 
	C913.420837,812.282654 909.591492,810.523132 907.001648,809.708374 
	C900.562073,820.709900 894.798889,830.555786 888.727539,840.928284 
	C888.485168,840.955383 887.387146,841.078125 886.251465,841.205078 
	C886.149658,841.860229 885.887207,842.402466 886.031799,842.794800 
	C887.579895,846.995728 882.430054,848.447021 882.319336,851.943237 
	C879.124390,851.647461 880.569336,854.226746 879.903198,855.596375 
	C878.661011,858.150757 875.780334,859.413025 875.150635,862.842163 
	C874.733276,865.115051 871.460999,866.718445 870.134338,869.008362 
	C868.655640,871.560608 868.278809,874.755310 866.779724,877.290344 
	C865.427368,879.577332 862.811462,881.119812 861.472595,883.411255 
	C859.907166,886.090332 859.382263,889.363281 857.920288,892.121155 
	C856.602783,894.606689 854.530090,896.679504 852.974670,899.054871 
	C851.524475,901.269531 850.216797,903.592834 849.029419,905.960083 
	C847.759827,908.491333 846.910095,911.248535 845.501709,913.690674 
	C843.883301,916.496887 841.815186,919.040833 840.038452,921.761475 
	C839.736389,922.224060 839.917297,923.002075 839.850647,923.999573 
	C829.920837,923.999573 820.053955,924.637451 810.340637,923.693970 
	C806.305542,923.301941 802.500061,919.685730 798.760437,917.271912 
	C786.853088,909.586304 775.146851,901.583374 763.135742,894.065979 
	C749.377502,885.455017 735.168823,877.553528 721.537354,868.752869 
	C707.329529,859.579956 693.608276,849.655518 679.597351,840.173340 
	C676.842346,838.308899 673.736572,836.962646 670.800354,835.381653 
	C674.068848,828.804749 677.505615,821.889343 681.378723,814.095886 
	C681.328430,814.103516 682.548950,813.918274 682.795654,813.880798 
	C690.788147,800.198364 698.398621,787.169922 706.009094,774.141418 
	C705.693115,773.872314 705.377197,773.603149 705.061218,773.333984 
	C706.284363,773.137146 707.507507,772.940247 707.322205,772.970093 
	C710.043884,769.019958 711.970825,765.853821 714.284363,763.001221 
	C715.722534,761.227905 713.557861,757.195312 717.878662,757.354919 
	C717.723694,751.630859 724.177795,748.952881 724.310181,743.033081 
	C724.356384,740.966797 728.004395,739.200684 729.273071,736.893616 
	C731.482361,732.875854 732.990356,728.479126 735.044312,724.367126 
	C736.497192,721.458496 738.385620,718.769226 740.042297,715.960022 
	C741.389526,713.675476 743.035828,711.484497 743.911499,709.024963 
	C745.110046,705.658447 745.421448,702.244812 748.474060,699.426758 
	C750.541992,697.517761 750.618408,693.599609 752.082336,690.843933 
	C753.400208,688.363220 755.504272,686.313843 757.058411,683.941040 
	C758.510376,681.724304 759.914001,679.425964 760.949768,676.997620 
	C762.812317,672.630920 763.482666,667.403503 766.336060,663.913025 
	C769.063477,660.576416 769.998596,657.187256 771.188843,653.419189 
	C771.953491,650.998535 774.356323,649.093018 776.037720,646.966736 
	C776.312744,646.618958 776.798767,646.377625 776.942017,645.995300 
	C778.662598,641.400940 780.063416,636.661377 782.133728,632.233704 
	C783.241028,629.865356 785.500977,628.042603 787.195251,625.937012 
	C787.562561,625.480591 787.954224,624.870483 787.962158,624.325684 
	C788.024109,620.091370 791.162048,617.734619 793.403625,614.730042 
	C795.060791,612.508545 795.661072,609.530396 797.047668,607.067017 
	C798.629944,604.255920 800.659851,601.699646 802.305115,598.920227 
	C803.271606,597.287476 803.933899,595.461060 804.616638,593.677185 
	C805.798157,590.590149 806.600281,587.318848 808.108582,584.408325 
	C809.332886,582.045776 811.383911,580.117493 813.013672,577.955444 
	C813.445068,577.383118 813.734253,576.681152 813.988342,576.001221 
	C815.905090,570.872314 817.450256,565.785461 821.436707,561.445068 
	C824.281128,558.348083 825.180847,553.478638 827.003296,549.424805 
	C828.274597,546.596924 829.677490,543.828369 830.951111,541.001465 
	C832.344238,537.909058 833.528625,534.715027 835.067383,531.699646 
	C835.667603,530.523438 837.397095,529.876038 837.864502,528.692505 
	C838.362671,527.430969 837.976685,525.820190 837.976685,524.190796 
	C742.927551,524.190796 648.209961,524.190796 552.699890,524.190796 
	C565.448486,534.547546 577.681885,544.390930 589.805908,554.367249 
	C598.386353,561.427673 606.807434,568.681519 615.320068,575.824646 
	C627.578613,586.111084 639.602478,596.699219 652.199402,606.554016 
	C663.753967,615.593201 675.935242,623.831238 688.831360,633.137451 
	C688.831360,655.019348 688.831360,678.781982 688.831360,702.942871 
	C684.602112,702.942871 680.516418,702.942871 676.048706,702.942871 
	C676.048706,708.405701 676.048706,713.490662 676.048706,718.958862 
	C671.252563,718.958862 666.833618,718.958862 662.033081,718.958862 
	C662.033081,724.088989 662.033081,728.841125 662.033081,733.974548 
	C657.236328,733.974548 652.817139,733.974548 648.017456,733.974548 
	C648.017456,739.105713 648.017456,743.857544 648.017456,748.990479 
	C642.551941,748.990479 637.467102,748.990479 632.002075,748.990479 
	C632.002075,753.455261 632.002075,757.541504 632.002075,762.005371 
	C626.536926,762.005371 621.451660,762.005371 616.161865,762.005371 
	C616.161865,766.351990 616.161865,770.309509 616.161865,774.843018 
	C610.436096,774.843018 604.889160,774.843018 599.152466,774.843018 
	C599.152466,778.703552 599.152466,781.993774 599.152466,785.858154 
	C592.759460,785.858154 586.544373,785.858154 580.142334,785.858154 
	C580.142334,789.383850 580.142334,792.343018 580.142334,795.869934 
	C573.745117,795.869934 567.527832,795.869934 561.132202,795.869934 
	C561.132202,798.386047 561.132202,800.348328 561.132202,802.717773 
	C554.544617,802.717773 548.127991,802.717773 541.410889,802.717773 
	C541.158752,804.601379 540.954224,806.129639 540.703857,808.000000 
	C537.146667,808.000000 533.619690,807.604553 530.227600,808.111450 
	C526.844849,808.616882 522.321777,805.474243 520.137390,810.846191 
	C519.983826,811.223816 518.261353,810.995483 517.268433,810.995483 
	C374.268860,810.991638 231.269272,810.982849 88.269699,810.972168 
	C88.106529,810.972168 87.943352,810.940857 87.397972,810.884949 
	C87.180870,809.457642 86.948753,807.931641 86.658356,806.022461 
	C80.254456,806.022461 73.826126,806.022461 67.028023,806.022461 
	C67.028023,803.231323 67.028023,800.820801 67.028023,798.020264 
	C60.573963,798.020264 54.486530,798.020264 48.015633,798.020264 
	C48.015633,793.558411 48.015633,789.472351 48.015633,785.007812 
	C42.551373,785.007812 37.466492,785.007812 31.999924,785.007812 
	C31.999924,779.540894 31.999924,774.455566 31.999924,768.992004 
	C27.868769,768.992004 24.115297,768.992004 19.987562,768.992004 
	C19.987562,762.521912 19.987562,756.433105 19.987562,750.149536 
	C17.641895,750.149536 15.687245,750.149536 13.163363,750.149536 
	C13.163363,743.427246 13.163363,736.880859 13.163363,730.143066 
	C10.979761,730.143066 9.358117,730.143066 6.999994,730.143066 
	C6.999994,724.387390 7.103599,718.807983 6.934103,713.237000 
	C6.885986,711.655457 8.396250,708.943848 4.770929,708.807678 
	C4.476632,708.796631 4.054261,706.846924 4.035003,705.791809 
	C3.952901,701.293274 4.174479,696.781799 3.900414,692.298584 
	C3.810794,690.832520 2.554613,689.437744 1.415967,688.005188 
	C1.000000,543.645752 1.000000,399.291534 1.000000,254.468658 
M633.953308,345.493713 
	C636.520203,349.382385 638.569275,353.767426 641.741089,357.076141 
	C657.792542,373.820282 677.127686,381.526764 700.588623,378.064484 
	C723.032043,374.752380 739.762146,362.586884 752.932068,344.968658 
	C761.755127,333.165619 767.644165,319.808838 770.820679,305.408356 
	C773.942627,291.255310 775.232605,277.035431 772.068909,262.589142 
	C768.687195,247.147324 761.039124,234.485168 747.537720,226.390335 
	C734.026428,218.289551 718.638367,216.951416 703.655884,220.401138 
	C685.634460,224.550568 669.628540,233.400970 656.618958,246.926041 
	C649.060913,254.783524 642.620422,263.359680 637.167603,272.973969 
	C630.619141,284.520142 627.388428,296.794678 626.190002,309.588745 
	C625.037964,321.887909 628.201660,333.722961 633.953308,345.493713 
M1040.951416,627.279114 
	C1040.723633,624.617920 1041.132202,623.020386 1044.502441,622.346436 
	C1045.743286,622.098328 1047.051270,617.775940 1046.772705,615.502563 
	C1046.454224,612.903931 1044.537598,610.434326 1043.070801,608.059753 
	C1041.132568,604.922058 1038.956665,601.931152 1036.311401,598.035278 
	C1036.570923,598.062256 1035.472290,597.948120 1034.657227,597.863403 
	C1033.988159,596.075500 1033.533813,594.491089 1032.813232,593.038757 
	C1032.078979,591.558716 1031.083008,590.208618 1030.201538,588.801636 
	C1030.152222,588.922241 1030.102905,589.042786 1030.053589,589.163391 
	C1027.187134,586.153564 1024.320557,583.143799 1021.629395,580.318115 
	C1020.328369,583.337769 1019.792542,587.618896 1017.397217,589.401672 
	C1014.118469,591.842041 1014.910522,595.816895 1012.146545,598.303467 
	C1010.212341,600.043640 1010.278870,604.044189 1008.323914,605.717285 
	C1004.115784,609.318848 1003.866821,614.717468 1001.196289,618.994507 
	C997.732788,624.541138 995.633179,630.946045 993.023193,637.014526 
	C992.373169,638.526001 992.245117,640.288879 991.465515,641.710510 
	C990.634583,643.225891 989.315796,644.473694 987.670288,646.504517 
	C992.736816,647.552979 995.897766,647.298645 999.466125,649.558533 
	C1006.162415,653.799500 1012.736877,648.185059 1018.897583,645.218872 
	C1022.141418,643.657104 1024.877686,641.041077 1027.843140,638.901123 
	C1029.123779,638.124939 1030.357178,637.111206 1031.469238,635.978333 
	C1033.352905,634.059265 1035.088989,631.991089 1037.029297,630.133972 
	C1037.973389,629.230408 1039.238647,628.662231 1040.951416,627.279114 
z"/>
<path fill="#000000" opacity="1.000000" stroke="none" 
	d="
M1871.000000,787.531372 
	C1866.156128,789.594421 1861.379028,791.451904 1856.448242,792.704712 
	C1852.067749,793.817749 1847.506470,794.203125 1843.042725,795.007629 
	C1814.829834,800.091553 1786.339844,800.195190 1757.807129,800.046692 
	C1720.975098,799.855042 1684.135498,800.379272 1647.311035,799.817261 
	C1632.125732,799.585510 1616.917969,797.746765 1601.827148,795.808411 
	C1595.089355,794.943054 1588.620361,792.010010 1582.018921,790.050171 
	C1575.126343,788.003906 1568.152832,786.198669 1561.358276,783.869446 
	C1558.967285,783.049805 1557.022583,780.958557 1554.824951,779.523132 
	C1554.317017,779.191223 1553.615356,779.126099 1552.989380,779.010437 
	C1551.639893,778.760864 1545.329590,775.054321 1543.932739,773.601990 
	C1542.434692,772.044434 1539.483521,774.227234 1538.186646,770.473999 
	C1537.464722,768.384338 1532.534058,767.748840 1529.148804,766.308594 
	C1529.071655,765.589966 1528.954224,764.495178 1528.799561,763.054810 
	C1527.268799,763.054810 1525.841797,763.054810 1524.258301,763.054810 
	C1524.087891,761.626892 1523.957275,760.532898 1523.826782,759.438965 
	C1523.582275,759.719666 1523.337891,760.000427 1523.093384,760.281128 
	C1519.968384,757.912292 1516.843506,755.543396 1513.718506,753.174561 
	C1513.963623,752.787170 1514.208740,752.399841 1514.453857,752.012451 
	C1513.157593,752.012451 1511.861206,752.012451 1510.281860,752.012451 
	C1510.118286,750.428833 1509.971313,749.004883 1509.881470,748.134888 
	C1508.383423,746.956055 1507.172241,746.042480 1506.006348,745.074524 
	C1504.867676,744.129089 1503.775269,743.128235 1502.088257,741.647827 
	C1502.063843,741.253784 1501.983276,739.954224 1501.882935,738.337463 
	C1500.725708,738.147217 1499.504761,737.946533 1498.878540,737.843567 
	C1497.204102,734.440430 1495.764771,731.515198 1494.093994,728.119629 
	C1493.565796,728.064026 1492.465698,727.948303 1492.195435,727.919861 
	C1489.333008,722.864807 1486.776978,718.350830 1483.814209,713.118469 
	C1483.609375,713.089539 1482.394409,712.917847 1482.464355,712.927734 
	C1480.400024,704.862244 1478.237915,697.628479 1476.755127,690.257996 
	C1475.443848,683.740356 1474.153320,677.074341 1474.119019,670.467224 
	C1473.889893,626.302063 1473.809204,582.133850 1474.137085,537.969971 
	C1474.216919,527.221069 1475.741211,516.451599 1477.102661,505.755371 
	C1477.891479,499.557587 1479.402832,493.409180 1481.096802,487.381287 
	C1482.736450,481.547272 1483.621582,474.573517 1487.423706,470.534332 
	C1491.275024,466.442841 1491.298462,461.222504 1494.291382,456.964478 
	C1496.940918,453.194916 1501.135620,448.953491 1501.306641,443.054474 
	C1501.367065,440.971802 1504.787354,439.120575 1506.263672,436.892059 
	C1507.080688,435.658752 1507.049438,433.863617 1507.135864,433.483795 
	C1509.993530,430.916443 1512.036011,429.081421 1514.653076,426.730255 
	C1515.744751,424.516357 1517.187378,421.590546 1518.262207,419.410553 
	C1520.102295,417.701202 1521.468262,416.432251 1522.834229,415.163330 
	C1522.624878,414.835266 1522.415527,414.507202 1522.206055,414.179138 
	C1523.638062,414.070618 1525.070068,413.962097 1525.052612,413.963409 
	C1528.632324,410.383270 1531.390259,407.625092 1534.973389,404.041626 
	C1534.966675,404.192566 1535.024536,402.892395 1535.096069,401.279785 
	C1536.540039,401.135834 1537.963257,400.993958 1538.630249,400.927490 
	C1540.959717,398.200867 1542.867310,395.967896 1545.011963,393.457642 
	C1547.566772,392.199860 1550.493042,390.759247 1553.883911,389.089844 
	C1553.938965,388.562225 1554.053101,387.466705 1554.110107,386.920685 
	C1557.477295,385.259277 1560.401001,383.816711 1563.836670,382.121490 
	C1563.898926,381.656372 1564.045166,380.561951 1564.005737,380.856476 
	C1567.923218,378.032074 1571.164795,375.961029 1574.069214,373.493256 
	C1575.615356,372.179657 1578.513794,374.648865 1579.461060,370.699768 
	C1579.882935,368.941193 1584.760742,368.521179 1587.238159,366.911865 
	C1589.829224,365.228821 1593.715454,366.394409 1595.474243,362.531189 
	C1596.057007,361.251312 1599.217896,361.180756 1601.173706,360.483459 
	C1606.244507,358.675385 1611.296631,356.815369 1616.363525,354.996277 
	C1622.837402,352.672058 1629.227173,350.051605 1635.822998,348.146698 
	C1641.991211,346.365204 1648.354736,345.209381 1654.679932,344.033875 
	C1663.906982,342.319122 1673.156250,340.698395 1682.436157,339.304688 
	C1687.290771,338.575623 1692.225098,338.155273 1697.133545,338.045929 
	C1717.049683,337.602356 1736.968628,337.217621 1756.888672,337.034454 
	C1774.706909,336.870605 1792.527832,337.000000 1810.992554,337.000000 
	C1810.649780,343.667389 1810.463989,350.167755 1809.936646,356.640350 
	C1809.500488,361.995361 1808.457275,367.301575 1808.039673,372.657227 
	C1806.923584,386.971527 1806.001099,401.300903 1804.998779,415.624084 
	C1804.001099,429.880493 1803.043335,444.139893 1801.970093,458.390625 
	C1801.689819,462.113495 1801.044800,465.808960 1800.505127,470.000000 
	C1796.089600,470.000000 1791.467529,469.904724 1786.850464,470.016724 
	C1767.903076,470.476257 1749.318970,473.414337 1730.812500,477.480377 
	C1716.116333,480.709259 1701.887085,485.374695 1688.782227,492.372314 
	C1677.902588,498.181671 1667.633667,505.614502 1658.315796,513.730713 
	C1649.395996,521.500183 1641.015625,530.357178 1634.279053,540.044128 
	C1626.111816,551.787964 1621.013794,565.114258 1619.845093,579.907898 
	C1618.188232,600.884399 1621.608154,620.316345 1633.986938,637.674744 
	C1642.443237,649.532837 1654.249146,656.870544 1667.937012,660.848755 
	C1680.913330,664.620117 1693.906616,664.912231 1705.984131,657.104065 
	C1706.905884,656.508179 1708.748657,657.356506 1710.166382,657.502869 
	C1711.932129,657.685181 1713.702759,657.991211 1715.468628,657.973389 
	C1723.576538,657.891235 1730.929077,655.134460 1738.099854,651.608582 
	C1739.472778,650.933411 1741.298340,651.214294 1742.901245,650.964539 
	C1747.462280,650.253723 1751.221069,647.770386 1755.150757,645.570068 
	C1757.346558,644.340637 1759.973267,643.899231 1762.370850,643.008728 
	C1768.620117,640.687805 1775.483398,639.260864 1780.877319,635.648865 
	C1784.835327,632.998535 1789.164185,631.187988 1793.176147,628.796509 
	C1797.714600,626.091125 1803.901978,625.854187 1807.951782,622.712585 
	C1811.807007,619.721802 1817.553345,620.327454 1820.099854,615.551758 
	C1820.170654,615.418945 1820.373413,615.248779 1820.491821,615.264771 
	C1823.618652,615.686035 1825.722778,613.887756 1827.902100,612.062744 
	C1828.387207,611.656433 1829.502930,612.003052 1830.675903,612.003052 
	C1833.787720,624.789734 1836.859131,637.560181 1840.012939,650.310242 
	C1841.824829,657.635315 1843.713623,664.942566 1845.667480,672.231079 
	C1849.407593,686.181824 1853.123291,700.140381 1857.029297,714.045044 
	C1860.408447,726.074463 1864.067505,738.025085 1867.536255,750.029785 
	C1868.560669,753.575073 1869.358521,757.185852 1870.630127,760.883301 
	C1871.000000,769.687561 1871.000000,778.375183 1871.000000,787.531372 
z"/>
<path fill="#000000" opacity="1.000000" stroke="none" 
	d="
M1315.998047,174.823334 
	C1316.333374,160.099274 1316.567261,145.846985 1317.036743,131.602478 
	C1317.330444,122.687141 1317.978882,113.783493 1318.511353,104.086388 
	C1321.245361,103.768311 1324.537842,103.212219 1327.850952,103.028351 
	C1346.933960,101.969391 1366.025635,101.060272 1385.106812,99.970322 
	C1393.951782,99.465080 1402.774170,98.572906 1411.617065,98.019783 
	C1428.699219,96.951286 1445.791260,96.039307 1462.873169,94.967621 
	C1466.748169,94.724518 1470.598755,94.094315 1475.328125,93.540764 
	C1474.857666,102.518639 1474.314209,110.698311 1474.026855,118.886971 
	C1473.591187,131.299850 1473.445923,143.723297 1472.970093,156.134308 
	C1472.433105,170.141251 1471.666626,184.139404 1471.000000,198.141373 
	C1470.333374,212.143341 1469.709473,226.147507 1468.986816,240.146561 
	C1468.384521,251.817627 1468.703857,263.661011 1466.736694,275.105225 
	C1464.290649,289.336304 1464.425171,303.540527 1463.893555,317.810455 
	C1463.380859,331.573029 1461.985718,345.302185 1461.003906,359.047882 
	C1459.986084,373.299683 1458.990356,387.553131 1458.001831,401.807007 
	C1457.319702,411.640747 1456.683105,421.477692 1455.995850,431.311066 
	C1455.011719,445.389801 1453.999634,459.466644 1452.999390,473.544281 
	C1451.999268,487.621948 1451.057861,501.704132 1449.980713,515.775940 
	C1449.068481,527.694519 1447.934570,539.596130 1447.016357,551.514343 
	C1445.944336,565.428101 1444.976318,579.350037 1444.007935,593.271545 
	C1443.300781,603.437195 1442.775635,613.616638 1441.973511,623.774414 
	C1440.736572,639.435974 1439.286255,655.080505 1438.014404,670.739441 
	C1437.122559,681.719604 1436.377319,692.711670 1435.540894,704.045593 
	C1386.087402,724.232910 1338.345703,749.456116 1285.704468,765.449280 
	C1286.191895,761.670227 1286.773193,758.548767 1286.968506,755.403320 
	C1287.713135,743.411438 1288.160400,731.399109 1289.042847,719.418335 
	C1290.198120,703.733887 1291.668457,688.072815 1292.976685,672.399414 
	C1293.087158,671.075378 1292.971191,669.734009 1293.003662,668.401672 
	C1293.665405,641.236755 1293.273438,613.990601 1295.349487,586.933960 
	C1296.895020,566.791077 1298.457031,546.686279 1299.050659,526.493774 
	C1299.256592,519.486938 1300.041016,512.497070 1300.580811,505.236053 
	C1299.322998,505.108124 1297.890747,504.962463 1297.442627,504.916870 
	C1295.007690,502.186859 1293.163574,500.119263 1291.319336,498.051666 
	C1291.506592,497.816101 1291.693726,497.580566 1291.880859,497.345001 
	C1287.562744,495.903229 1283.244507,494.461426 1278.223877,492.785065 
	C1278.223877,491.448517 1278.223877,489.038177 1278.223877,486.291290 
	C1276.459229,486.125610 1275.050659,485.993347 1273.301880,485.829132 
	C1273.123047,484.690002 1272.931030,483.467041 1272.738892,482.244110 
	C1272.470825,482.540863 1272.202637,482.837616 1271.934570,483.134369 
	C1268.922729,480.901489 1265.910889,478.668579 1262.899048,476.435699 
	C1263.168457,475.959900 1263.437866,475.484070 1263.707153,475.008240 
	C1260.602539,475.008240 1257.497803,475.008240 1254.175659,475.008240 
	C1254.175659,472.367249 1254.175659,470.084473 1254.175659,467.932617 
	C1251.210205,466.262970 1248.513794,464.744873 1245.096924,462.821045 
	C1245.069702,462.572510 1244.937256,461.360992 1244.785522,459.973694 
	C1241.448730,459.973694 1238.485107,459.973694 1235.145752,459.973694 
	C1235.145752,457.682251 1235.145752,455.603546 1235.145752,453.524841 
	C1234.831299,453.713806 1234.516846,453.902802 1234.202393,454.091766 
	C1232.767578,452.663971 1231.332764,451.236145 1229.897949,449.808350 
	C1228.159668,448.742828 1224.198364,450.327301 1226.171997,445.066528 
	C1222.894653,445.066528 1220.262939,445.066528 1217.235596,445.066528 
	C1217.235596,442.466003 1217.235596,440.051300 1217.235596,438.910309 
	C1213.201660,436.014709 1210.032227,433.739685 1206.862793,431.464661 
	C1207.135254,430.973297 1207.407715,430.481903 1207.680176,429.990540 
	C1204.580200,429.990540 1201.480103,429.990540 1198.157959,429.990540 
	C1198.157959,427.344208 1198.157959,425.059296 1198.157959,423.242065 
	C1195.166626,420.952301 1192.608521,418.994202 1189.031006,416.255890 
	C1189.070312,416.516907 1188.887939,415.304138 1188.682617,413.937927 
	C1185.730713,413.937927 1183.104004,413.937927 1180.109741,413.937927 
	C1180.109741,411.645844 1180.109741,409.568268 1180.109741,407.107117 
	C1176.992310,407.107117 1174.242188,407.107117 1171.113525,407.107117 
	C1171.113525,404.319305 1171.113525,401.906067 1171.113525,399.105957 
	C1167.658081,399.105957 1164.573486,399.105957 1161.225342,399.105957 
	C1161.225342,396.454163 1161.225342,394.182343 1161.225342,390.455536 
	C1155.391724,389.326080 1149.552002,388.195435 1143.175415,386.960846 
	C1143.175415,384.063843 1143.175415,380.311066 1143.175415,376.221954 
	C1140.399658,375.891296 1136.695068,376.847168 1138.019043,372.055359 
	C1134.879272,372.055359 1132.249268,372.055359 1129.223022,372.055359 
	C1129.223022,369.451080 1129.223022,367.034332 1129.223022,364.893524 
	C1126.055054,363.148468 1123.342041,361.654022 1120.087769,359.861481 
	C1120.052002,359.518066 1119.937744,358.420441 1119.788086,356.984375 
	C1116.892578,356.984375 1114.131958,356.984375 1110.997070,356.984375 
	C1110.997070,354.208313 1110.997070,351.782379 1110.997070,348.998169 
	C1107.873047,348.998169 1105.123169,348.998169 1101.999390,348.998169 
	C1101.999390,346.209564 1101.999390,343.784485 1101.999390,340.999817 
	C1098.535645,340.999817 1095.444214,340.999817 1092.151855,340.999817 
	C1092.151855,338.671295 1092.151855,336.719269 1092.151855,335.234344 
	C1089.164673,332.950195 1086.604614,330.992706 1083.029663,328.259125 
	C1083.069092,328.520142 1082.886597,327.312561 1082.678589,325.936218 
	C1079.726074,325.936218 1077.099365,325.936218 1074.099854,325.936218 
	C1074.099854,323.304352 1074.099854,320.885681 1074.099854,318.466980 
	C1073.769897,318.734894 1073.439941,319.002777 1073.109985,319.270660 
	C1069.999634,316.913086 1066.889282,314.555481 1063.778809,312.197906 
	C1064.019287,311.810364 1064.259644,311.422821 1064.500000,311.035278 
	C1061.534302,311.035278 1058.568604,311.035278 1055.207764,311.035278 
	C1055.207764,308.423096 1055.207764,306.012177 1055.207764,305.032104 
	C1052.851196,302.725800 1051.404663,301.310089 1049.035645,298.991638 
	C1047.409180,298.187714 1044.500977,296.750305 1041.111328,295.074890 
	C1041.055420,294.534241 1040.942383,293.441467 1040.792603,291.993866 
	C1037.904175,291.993866 1035.143311,291.993866 1032.007690,291.993866 
	C1032.007690,289.215637 1032.007690,286.801392 1032.007690,284.011047 
	C1028.877441,284.011047 1026.118896,284.011047 1022.938416,284.011047 
	C1023.350220,279.874786 1022.029846,276.757446 1027.235229,273.834564 
	C1058.545166,256.253479 1086.661011,233.860809 1116.017090,213.338425 
	C1129.952637,203.596298 1143.314697,193.022797 1156.779297,182.622208 
	C1165.667969,175.756256 1174.235474,168.475861 1183.045288,161.505432 
	C1184.797241,160.119278 1186.996338,159.298325 1187.938843,158.786819 
	C1190.311523,161.199142 1191.735962,162.647415 1193.968872,164.917587 
	C1193.963257,164.796265 1194.023071,166.096161 1194.097290,167.707672 
	C1195.527832,167.856689 1196.950195,168.004837 1197.297241,168.040985 
	C1201.205444,172.144547 1204.551758,175.658051 1208.697021,180.010498 
	C1208.799561,180.010498 1210.224487,180.010498 1211.649536,180.010498 
	C1211.406738,180.401184 1211.163940,180.791885 1210.921143,181.182571 
	C1213.892944,183.827682 1216.864868,186.472794 1219.836670,189.117920 
	C1219.896240,189.023773 1219.955933,188.929642 1220.015503,188.835495 
	C1223.292480,192.196671 1226.569580,195.557846 1229.846558,198.919022 
	C1229.617554,199.200958 1229.388428,199.482895 1229.159424,199.764816 
	C1230.592041,199.898956 1232.024536,200.033096 1233.740234,200.193741 
	C1233.908936,201.367981 1234.083374,202.582657 1234.282349,203.968842 
	C1237.150024,203.968842 1239.779297,203.968842 1242.801514,203.968842 
	C1242.801514,206.576752 1242.801514,208.996643 1242.801514,209.967590 
	C1245.160278,212.281418 1246.604492,213.698151 1248.902222,215.952103 
	C1248.755859,215.943512 1250.055176,216.019791 1250.574707,216.050293 
	C1252.930908,218.764801 1254.849609,220.975418 1257.488037,224.015106 
	C1257.805664,224.015106 1259.230591,224.015106 1260.655518,224.015106 
	C1260.464478,224.390594 1260.273438,224.766098 1260.082275,225.141586 
	C1261.294678,226.103180 1262.682739,226.911301 1263.683472,228.057663 
	C1265.897461,230.594055 1267.916626,233.300522 1270.458252,236.494232 
	C1271.559448,237.306076 1273.390259,238.655777 1275.220947,240.005463 
	C1275.020386,240.351166 1274.819824,240.696869 1274.619263,241.042572 
	C1277.244873,241.042572 1279.870483,241.042572 1282.877197,241.042572 
	C1282.877197,243.662872 1282.877197,246.093506 1282.877197,247.318130 
	C1285.034790,249.249008 1286.419800,250.488510 1287.804810,251.728012 
	C1287.587769,252.070389 1287.370850,252.412766 1287.153931,252.755142 
	C1288.583740,252.893860 1290.013550,253.032593 1290.704468,253.099609 
	C1293.006470,255.849808 1294.901245,258.113495 1297.253784,260.924103 
	C1297.763916,260.951508 1299.063599,261.021332 1299.172241,261.027191 
	C1301.958130,263.780212 1304.055420,265.852692 1306.811523,268.576324 
	C1306.811523,237.730438 1306.811523,207.573883 1306.811523,178.000916 
	C1310.316895,176.969498 1313.156494,176.133957 1315.998047,174.823334 
z"/>
<path fill="#000000" opacity="1.000000" stroke="none" 
	d="
M1396.222168,899.014526 
	C1403.942383,896.351074 1411.259521,893.700317 1419.123291,890.851501 
	C1418.606201,894.360657 1418.146362,897.481750 1417.628906,900.993652 
	C1415.231445,900.993652 1412.814575,900.993652 1410.038940,900.993652 
	C1410.038940,903.424988 1410.038940,905.498169 1410.038940,907.782471 
	C1398.272217,907.782471 1386.869019,907.782471 1375.306396,907.782471 
	C1382.209106,904.836243 1389.014160,901.931702 1396.222168,899.014526 
z"/>
<path fill="#FFFFFF" opacity="1.000000" stroke="none" 
	d="
M633.685059,345.214661 
	C628.201660,333.722961 625.037964,321.887909 626.190002,309.588745 
	C627.388428,296.794678 630.619141,284.520142 637.167603,272.973969 
	C642.620422,263.359680 649.060913,254.783524 656.618958,246.926041 
	C669.628540,233.400970 685.634460,224.550568 703.655884,220.401138 
	C718.638367,216.951416 734.026428,218.289551 747.537720,226.390335 
	C761.039124,234.485168 768.687195,247.147324 772.068909,262.589142 
	C775.232605,277.035431 773.942627,291.255310 770.820679,305.408356 
	C767.644165,319.808838 761.755127,333.165619 752.932068,344.968658 
	C739.762146,362.586884 723.032043,374.752380 700.588623,378.064484 
	C677.127686,381.526764 657.792542,373.820282 641.741089,357.076141 
	C638.569275,353.767426 636.520203,349.382385 633.685059,345.214661 
z"/>
<path fill="#FFFFFF" opacity="1.000000" stroke="none" 
	d="
M1040.655029,627.610657 
	C1039.238647,628.662231 1037.973389,629.230408 1037.029297,630.133972 
	C1035.088989,631.991089 1033.352905,634.059265 1031.469238,635.978333 
	C1030.357178,637.111206 1029.123779,638.124939 1027.843140,638.901123 
	C1024.877686,641.041077 1022.141418,643.657104 1018.897583,645.218872 
	C1012.736877,648.185059 1006.162415,653.799500 999.466125,649.558533 
	C995.897766,647.298645 992.736816,647.552979 987.670288,646.504517 
	C989.315796,644.473694 990.634583,643.225891 991.465515,641.710510 
	C992.245117,640.288879 992.373169,638.526001 993.023193,637.014526 
	C995.633179,630.946045 997.732788,624.541138 1001.196289,618.994507 
	C1003.866821,614.717468 1004.115784,609.318848 1008.323914,605.717285 
	C1010.278870,604.044189 1010.212341,600.043640 1012.146545,598.303467 
	C1014.910522,595.816895 1014.118469,591.842041 1017.397217,589.401672 
	C1019.792542,587.618896 1020.328369,583.337769 1021.629395,580.318115 
	C1024.320557,583.143799 1027.187134,586.153564 1030.053589,589.163391 
	C1030.102905,589.042786 1030.152222,588.922241 1030.201538,588.801636 
	C1031.083008,590.208618 1032.078979,591.558716 1032.813232,593.038757 
	C1033.533813,594.491089 1033.988159,596.075500 1034.657227,597.863403 
	C1035.472290,597.948120 1036.570923,598.062256 1036.311401,598.035278 
	C1038.956665,601.931152 1041.132568,604.922058 1043.070801,608.059753 
	C1044.537598,610.434326 1046.454224,612.903931 1046.772705,615.502563 
	C1047.051270,617.775940 1045.743286,622.098328 1044.502441,622.346436 
	C1041.132202,623.020386 1040.723633,624.617920 1040.655029,627.610657 
z"/>
</svg>