<svg width="58" height="14" viewBox="0 0 58 14" fill="none" xmlns="http://www.w3.org/2000/svg">
<path d="M7.5 7H51.5" stroke="#E0E0E0"/>
<circle cx="29" cy="7" r="7" fill="#212121"/>
<circle cx="51" cy="7" r="7" fill="#E0E0E0"/>
<path d="M27.032 9.976H30.72V9.344H29.096C28.8 9.344 28.44 9.376 28.136 9.4C29.512 8.096 30.432 6.904 30.432 5.736C30.432 4.688 29.776 4 28.728 4C27.984 4 27.48 4.344 27 4.864L27.424 5.28C27.744 4.896 28.16 4.6 28.64 4.6C29.368 4.6 29.72 5.088 29.72 5.76C29.72 6.768 28.872 7.936 27.032 9.544V9.976Z" fill="white"/>
<path d="M50.88 10.08C51.92 10.08 52.76 9.456 52.76 8.408C52.76 7.608 52.208 7.08 51.52 6.92V6.888C52.136 6.656 52.56 6.184 52.56 5.472C52.56 4.544 51.84 4 50.856 4C50.176 4 49.656 4.296 49.216 4.704L49.608 5.168C49.936 4.832 50.352 4.6 50.824 4.6C51.432 4.6 51.816 4.968 51.816 5.528C51.816 6.16 51.4 6.648 50.192 6.648V7.208C51.544 7.208 52.016 7.68 52.016 8.376C52.016 9.056 51.52 9.472 50.824 9.472C50.16 9.472 49.712 9.16 49.368 8.8L49 9.28C49.384 9.696 49.96 10.08 50.88 10.08Z" fill="#616161"/>
<circle cx="7" cy="7" r="7" fill="#E0E0E0"/>
<path d="M5 9.872H8.216V9.264H7.04V4H6.48C6.16 4.192 5.784 4.328 5.264 4.424V4.888H6.304V9.264H5V9.872Z" fill="#616161"/>
</svg>
