<svg width="333" height="483" viewBox="0 0 333 483" fill="none" xmlns="http://www.w3.org/2000/svg">
<path d="M6.44377 250.312C6.44377 248.483 5.00096 247 3.22188 247C1.44217 247 0 248.483 0 250.312C0 252.142 1.44217 253.626 3.22188 253.626C5.00096 253.626 6.44377 252.142 6.44377 250.312Z" fill="#FFD02F"/>
<path d="M32.1678 316.657C32.1678 315.189 31.0112 314 29.5842 314C28.1567 314 27 315.189 27 316.657C27 318.124 28.1567 319.314 29.5842 319.314C31.0112 319.314 32.1678 318.124 32.1678 316.657Z" fill="#FF4E61"/>
<path d="M269.168 257.657C269.168 256.189 268.011 255 266.584 255C265.157 255 264 256.189 264 257.657C264 259.124 265.157 260.314 266.584 260.314C268.011 260.314 269.168 259.124 269.168 257.657Z" fill="#FF4E61"/>
<path d="M290.199 309.551C289.997 309.551 289.793 309.5 289.606 309.393C289.03 309.065 288.829 308.333 289.158 307.759L298.394 291.604C298.723 291.03 299.456 290.83 300.032 291.158C300.608 291.486 300.808 292.218 300.48 292.792L291.244 308.947C291.022 309.334 290.617 309.551 290.199 309.551Z" fill="#62D38F"/>
<path d="M2.21381 403.41C1.90038 403.41 1.58758 403.288 1.35219 403.046L1.33886 403.033C0.877597 402.558 0.888383 401.8 1.36424 401.339C1.8401 400.878 2.6002 400.889 3.0621 401.363L3.07543 401.377C3.53669 401.851 3.52591 402.61 3.05005 403.071C2.81656 403.297 2.51518 403.41 2.21381 403.41Z" fill="#FFAA00"/>
<path d="M9.21364 407.41C8.90275 407.41 8.59249 407.29 8.35773 407.052L8.34441 407.038C7.87934 406.566 7.88632 405.807 8.359 405.344C8.83232 404.88 9.59243 404.887 10.0569 405.358L10.0702 405.372C10.5346 405.844 10.5283 406.603 10.055 407.066C9.82147 407.295 9.51756 407.41 9.21364 407.41Z" fill="#002CB9"/>
<path d="M307.201 459.931C306.899 459.931 306.598 459.819 306.364 459.593C305.889 459.132 305.877 458.373 306.34 457.898L307.832 456.364C308.294 455.889 309.054 455.877 309.53 456.338C310.006 456.799 310.017 457.558 309.555 458.033L308.062 459.567C307.827 459.81 307.514 459.931 307.201 459.931Z" fill="#FF4E61"/>
<path d="M313.443 433.312C313.443 431.483 312.001 430 310.222 430C308.442 430 307 431.483 307 433.312C307 435.142 308.442 436.625 310.222 436.625C312.001 436.625 313.443 435.142 313.443 433.312Z" fill="white"/>
<path d="M59.2001 277.931C58.8994 277.931 58.5973 277.819 58.3645 277.593C57.8886 277.132 57.8772 276.373 58.3391 275.898L59.832 274.363C60.2939 273.889 61.054 273.878 61.5299 274.339C62.0051 274.8 62.0165 275.558 61.5546 276.032L60.0617 277.567C59.8263 277.809 59.5135 277.931 59.2001 277.931Z" fill="white"/>
<path d="M37.2001 404.931C36.8994 404.931 36.5973 404.819 36.3645 404.593C35.8886 404.132 35.8772 403.374 36.3391 402.899L37.8314 401.364C38.2933 400.889 39.0534 400.877 39.5293 401.338C40.0051 401.799 40.0165 402.558 39.5546 403.033L38.0617 404.568C37.827 404.81 37.5135 404.931 37.2001 404.931Z" fill="#2DC471"/>
<path d="M290.219 482.396C290.218 482.396 290.216 482.396 290.214 482.396H290.195C289.532 482.394 288.997 481.855 289 481.193C289.003 480.533 289.54 480 290.2 480H290.206H290.225C290.888 480.003 291.422 480.541 291.42 481.203C291.417 481.863 290.88 482.396 290.219 482.396Z" fill="#FFAA00"/>
<path d="M24.2154 288.406C24.0041 288.406 23.7903 288.351 23.5968 288.234L23.5809 288.225C23.0131 287.883 22.8304 287.146 23.1723 286.579C23.515 286.013 24.2529 285.831 24.8207 286.172L24.8366 286.182C25.4044 286.524 25.5872 287.26 25.2446 287.827C25.0193 288.2 24.6221 288.406 24.2154 288.406V288.406Z" fill="#2DC471"/>
<path d="M324.214 326.41C323.9 326.41 323.588 326.288 323.352 326.046L323.339 326.033C322.878 325.558 322.888 324.8 323.364 324.339C323.84 323.878 324.6 323.889 325.062 324.363L325.075 324.377C325.537 324.851 325.526 325.61 325.05 326.071C324.817 326.297 324.515 326.41 324.214 326.41Z" fill="#FFAA00"/>
<path d="M258.2 232.931C257.899 232.931 257.597 232.819 257.364 232.593C256.889 232.132 256.877 231.374 257.339 230.899L258.831 229.364C259.293 228.889 260.053 228.877 260.529 229.338C261.005 229.799 261.017 230.558 260.555 231.033L259.062 232.568C258.827 232.81 258.514 232.931 258.2 232.931Z" fill="white"/>
<path d="M294.214 318.41C293.903 318.41 293.592 318.29 293.358 318.052L293.344 318.038C292.879 317.566 292.886 316.807 293.359 316.344C293.832 315.88 294.592 315.887 295.057 316.358L295.07 316.372C295.535 316.844 295.528 317.603 295.055 318.066C294.821 318.295 294.518 318.41 294.214 318.41Z" fill="#FF4E61"/>
<path d="M79.2712 231.817L77.7976 232.89C77.4156 233.168 76.8813 232.886 76.8935 232.412L76.9414 230.586C76.9462 230.397 76.8587 230.219 76.707 230.108L75.2349 229.033C74.8529 228.754 74.9553 228.157 75.4081 228.023L77.1538 227.504C77.3333 227.45 77.4757 227.311 77.5336 227.132L78.0972 225.395C78.2433 224.944 78.841 224.858 79.1084 225.248L80.1396 226.754C80.2461 226.909 80.4215 227.002 80.6087 227.002L82.4294 227.003C82.9018 227.003 83.1688 227.547 82.8811 227.923L81.7727 229.373C81.6585 229.522 81.6247 229.718 81.6826 229.897L82.2444 231.635C82.3897 232.086 81.957 232.509 81.512 232.351L79.7959 231.741C79.6194 231.678 79.4232 231.706 79.2712 231.817V231.817Z" fill="#FFD02F"/>
<path d="M17.8729 465.373L15.8467 466.848C15.3215 467.231 14.5868 466.843 14.6036 466.192L14.6694 463.68C14.676 463.422 14.5557 463.176 14.3471 463.024L12.323 461.546C11.7978 461.162 11.9385 460.341 12.5611 460.156L14.9615 459.443C15.2083 459.369 15.4041 459.178 15.4836 458.932L16.2586 456.543C16.4595 455.923 17.2814 455.804 17.6491 456.341L19.067 458.412C19.2133 458.625 19.4545 458.753 19.712 458.753L22.2154 458.754C22.865 458.755 23.2321 459.502 22.8365 460.019L21.3125 462.012C21.1554 462.218 21.109 462.488 21.1886 462.734L21.961 465.124C22.1609 465.744 21.5659 466.325 20.954 466.107L18.5943 465.268C18.3517 465.182 18.0819 465.221 17.8729 465.373V465.373Z" fill="#FFD02F"/>
<path d="M320.168 443.656C320.168 442.189 319.011 441 317.584 441C316.157 441 315 442.189 315 443.656C315 445.124 316.157 446.314 317.584 446.314C319.011 446.314 320.168 445.124 320.168 443.656V443.656Z" fill="#62D38F"/>
<path d="M322.339 357.521L320.497 358.862C320.02 359.21 319.352 358.857 319.367 358.265L319.427 355.982C319.433 355.747 319.323 355.524 319.134 355.385L317.294 354.042C316.816 353.693 316.944 352.947 317.51 352.778L319.692 352.13C319.917 352.063 320.095 351.889 320.167 351.665L320.871 349.494C321.054 348.93 321.801 348.822 322.136 349.31L323.425 351.193C323.558 351.386 323.777 351.502 324.011 351.502L326.287 351.504C326.877 351.504 327.211 352.184 326.851 352.654L325.466 354.466C325.323 354.653 325.281 354.898 325.353 355.121L326.055 357.294C326.237 357.858 325.696 358.386 325.14 358.188L322.995 357.426C322.774 357.347 322.529 357.383 322.339 357.521V357.521Z" fill="#FFD02F"/>
<path d="M326.168 183.656C326.168 182.189 325.011 181 323.584 181C322.157 181 321 182.189 321 183.656C321 185.124 322.157 186.314 323.584 186.314C325.011 186.314 326.168 185.124 326.168 183.656Z" fill="#002CB9"/>
<path d="M243.168 27.6571C243.168 26.1899 242.011 25 240.584 25C239.157 25 238 26.1899 238 27.6571C238 29.1243 239.157 30.3135 240.584 30.3135C242.011 30.3135 243.168 29.1243 243.168 27.6571V27.6571Z" fill="#FF4E61"/>
<path d="M46.339 8.52106L44.497 9.86224C44.0195 10.2104 43.3516 9.85728 43.3669 9.26526L43.4267 6.98209C43.4327 6.74682 43.3233 6.52375 43.1338 6.38511L41.2936 5.04167C40.8162 4.69306 40.9441 3.9466 41.5101 3.77816L43.6923 3.1297C43.9166 3.06287 44.0946 2.88901 44.1669 2.66548L44.8715 0.493853C45.0541 -0.0697134 45.8013 -0.178092 46.1355 0.310062L47.4245 2.19268C47.5576 2.38641 47.7768 2.50246 48.0109 2.50246L50.2868 2.50382C50.8773 2.50427 51.211 3.18389 50.8513 3.65398L49.4659 5.4657C49.3231 5.65266 49.2809 5.89786 49.3532 6.12139L50.0555 8.29437C50.2372 8.85794 49.6962 9.38628 49.14 9.18849L46.9949 8.42578C46.7742 8.34721 46.529 8.38288 46.339 8.52106V8.52106Z" fill="#FFD02F"/>
<path d="M331.088 70.6465C330.775 70.6465 330.462 70.5249 330.226 70.283L317.339 57.0324C316.878 56.5575 316.888 55.7989 317.364 55.3385C317.84 54.8775 318.6 54.8889 319.062 55.3632L331.95 68.6138C332.411 69.0881 332.4 69.8473 331.924 70.3077C331.691 70.5337 331.389 70.6465 331.088 70.6465Z" fill="white"/>
<path d="M238.201 41.9312C237.899 41.9312 237.598 41.8185 237.364 41.5931C236.889 41.1321 236.877 40.3734 237.339 39.8985L238.832 38.3635C239.294 37.8892 240.054 37.8772 240.53 38.3382C241.006 38.7992 241.017 39.5578 240.555 40.0328L239.062 41.5677C238.827 41.8096 238.514 41.9312 238.201 41.9312Z" fill="#FFAA00"/>
<path d="M103.2 5.93144C102.899 5.93144 102.597 5.81936 102.364 5.59329C101.889 5.13229 101.877 4.37367 102.339 3.89874L103.831 2.36377C104.293 1.88884 105.053 1.87745 105.529 2.33844C106.005 2.79944 106.017 3.55806 105.555 4.03299L104.062 5.56796C103.827 5.80986 103.514 5.93144 103.2 5.93144Z" fill="#2DC471"/>
</svg>
