<svg width="314" height="145" viewBox="0 0 314 145" fill="none" xmlns="http://www.w3.org/2000/svg">
<g filter="url(#filter0_ddd_850_17002)">
<path d="M4.204 108.402V109.578H8.614C8.362 111.58 6.57 113.218 3.672 114.1L4.274 115.248C7.956 114.128 10.182 111.748 10.182 108.402H4.204ZM7.018 115.668H5.562V119.84H14.074V118.664H7.018V115.668ZM13.57 111.132V107.436H12.128V116.592H13.57V112.322H15.376V111.132H13.57ZM23.8309 112.826C22.3049 113.148 20.9469 113.218 18.5529 113.232V109.648H22.7389V108.472H17.1109V114.422H18.1329C20.8489 114.422 22.3329 114.338 23.9709 113.988L23.8309 112.826ZM19.9109 115.654H18.4549V119.84H26.9669V118.664H19.9109V115.654ZM26.4629 111.048V107.422H25.0209V116.578H26.4629V112.238H28.2549V111.048H26.4629ZM36.9478 108.878H33.9378V107.436H32.4958V108.878H29.4858V110.026H36.9478V108.878ZM31.5298 113.008C31.5298 112.21 32.2158 111.734 33.2098 111.734C34.2178 111.734 34.9038 112.21 34.9038 113.008C34.9038 113.806 34.2178 114.282 33.2098 114.282C32.2158 114.282 31.5298 113.806 31.5298 113.008ZM36.2758 113.008C36.2758 111.58 35.0298 110.614 33.2098 110.614C31.4038 110.614 30.1438 111.58 30.1438 113.008C30.1438 114.45 31.4038 115.402 33.2098 115.402C35.0298 115.402 36.2758 114.45 36.2758 113.008ZM32.7898 116.186H31.3338V119.84H39.8458V118.664H32.7898V116.186ZM39.3418 111.468V107.436H37.8998V116.914H39.3418V112.658H41.1338V111.468H39.3418ZM50.5493 112.49H47.4693V109.298H50.5493V112.49ZM54.5113 110.222V111.51H51.9493V110.222H54.5113ZM51.9493 112.63H54.5113V114.646H55.9673V107.436H54.5113V109.116H51.9493V108.15H46.0413V113.624H51.9493V112.63ZM56.2053 116.508V115.43H52.5793V114.31H51.1093V115.43H47.4833V116.508H51.1093C51.0253 117.6 49.3593 118.72 46.9793 118.958L47.4553 120.036C49.4853 119.798 51.0813 118.986 51.8512 117.894C52.6073 118.972 54.1893 119.798 56.2053 120.036L56.6673 118.958C54.3153 118.692 52.6773 117.558 52.5933 116.508H56.2053ZM61.9807 109.032V110.208H65.5227C65.3267 112.756 64.1787 114.828 61.4487 116.41L62.2887 117.432C65.8447 115.388 66.9507 112.406 66.9507 109.032H61.9807ZM70.8987 107.436V112.378H69.4567V107.772H68.0987V119.49H69.4567V113.554H70.8987V120.078H72.2707V107.436H70.8987ZM78.4716 108.318C76.4976 108.318 75.0416 109.564 75.0416 111.356C75.0416 113.148 76.4976 114.394 78.4716 114.394C80.4456 114.394 81.9156 113.148 81.9156 111.356C81.9156 109.564 80.4456 108.318 78.4716 108.318ZM78.4716 109.55C79.6476 109.55 80.5016 110.25 80.5016 111.356C80.5016 112.448 79.6476 113.162 78.4716 113.162C77.3096 113.162 76.4556 112.448 76.4556 111.356C76.4556 110.25 77.3096 109.55 78.4716 109.55ZM83.3436 107.422V120.092H84.7996V107.422H83.3436ZM74.6356 117.418C76.8756 117.418 79.8996 117.39 82.6856 116.858L82.5876 115.808C79.8716 116.214 76.7216 116.228 74.4536 116.228L74.6356 117.418ZM100.837 107.436H99.381V113.96H100.837V107.436ZM98.205 112.658C96.287 112.112 95.167 110.726 95.125 109.256H97.827V108.094H90.911V109.256H93.655C93.627 110.824 92.479 112.322 90.519 112.91L91.205 114.044C92.745 113.554 93.851 112.532 94.411 111.244C94.985 112.406 96.063 113.344 97.561 113.764L98.205 112.658ZM93.991 118.846V117.726H100.837V114.534H92.549V115.626H99.409V116.69H92.577V119.966H101.215V118.846H93.991ZM111.854 111.412H106.156V109.144H111.854V111.412ZM113.268 107.996H104.742V112.56H113.268V107.996ZM106.128 116.186H104.686V119.84H113.478V118.664H106.128V116.186ZM103.286 113.806V114.968H108.41V117.334H109.852V114.968H114.752V113.806H103.286ZM121.891 108.71C123.851 108.71 124.901 109.088 124.901 109.816C124.901 110.53 123.851 110.908 121.891 110.908C119.931 110.908 118.881 110.53 118.881 109.816C118.881 109.088 119.931 108.71 121.891 108.71ZM121.891 111.986C124.719 111.986 126.399 111.216 126.399 109.816C126.399 108.402 124.719 107.632 121.891 107.632C119.049 107.632 117.383 108.402 117.383 109.816C117.383 111.216 119.049 111.986 121.891 111.986ZM118.979 117.81H126.175V114.786H117.523V115.878H124.761V116.788H117.551V119.966H126.539V118.86H118.979V117.81ZM116.165 112.728V113.876H127.617V112.728H116.165ZM137.886 119C135.982 119 134.988 118.692 134.988 118.02C134.988 117.376 135.982 117.054 137.886 117.054C139.804 117.054 140.798 117.376 140.798 118.02C140.798 118.692 139.804 119 137.886 119ZM137.886 115.99C135.142 115.99 133.532 116.69 133.532 118.02C133.532 119.364 135.142 120.078 137.886 120.078C140.644 120.078 142.24 119.364 142.24 118.02C142.24 116.69 140.644 115.99 137.886 115.99ZM138.628 114.044V113.008H142.338V111.902H135.086V110.922H141.946V109.844H135.086V108.892H142.254V107.786H133.644V113.008H137.172V114.044H132.174V115.206H143.612V114.044H138.628ZM148.161 116.046C147.307 116.046 146.705 115.36 146.705 114.31C146.705 113.26 147.307 112.56 148.161 112.56C149.015 112.56 149.617 113.26 149.617 114.31C149.617 115.36 149.015 116.046 148.161 116.046ZM148.161 111.37C146.565 111.37 145.417 112.56 145.417 114.31C145.417 116.046 146.565 117.25 148.161 117.25C149.757 117.25 150.905 116.046 150.905 114.31C150.905 112.56 149.757 111.37 148.161 111.37ZM148.875 107.8H147.447V109.494H145.053V110.656H151.241V109.494H148.875V107.8ZM154.475 107.436V112.672H153.131V107.702H151.787V119.49H153.131V113.862H154.475V120.078H155.847V107.436H154.475ZM10.266 134.856V135.864H12.744V137.04H14.186V127.422H12.744V134.856H10.266ZM7.746 128.976C8.782 128.976 9.496 129.424 9.496 130.138C9.496 130.852 8.782 131.3 7.746 131.3C6.696 131.3 5.982 130.852 5.982 130.138C5.982 129.424 6.696 128.976 7.746 128.976ZM7.746 132.364C9.594 132.364 10.868 131.482 10.868 130.138C10.868 128.794 9.594 127.912 7.746 127.912C5.884 127.912 4.61 128.794 4.61 130.138C4.61 131.482 5.884 132.364 7.746 132.364ZM7.172 136.634H8.614V134.198C9.692 134.128 10.798 134.016 11.862 133.834L11.75 132.798C9.076 133.134 5.968 133.162 3.644 133.176L3.826 134.352C4.834 134.352 5.968 134.338 7.172 134.282V136.634ZM6.794 138.664V136.102H5.352V139.84H14.48V138.664H6.794ZM20.2749 136.172C19.2529 136.172 18.5109 135.472 18.5109 134.408C18.5109 133.344 19.2529 132.644 20.2749 132.644C21.2969 132.644 22.0389 133.344 22.0389 134.408C22.0389 135.472 21.2969 136.172 20.2749 136.172ZM20.2749 131.454C18.4549 131.454 17.1389 132.686 17.1389 134.408C17.1389 136.144 18.4549 137.362 20.2749 137.362C22.0809 137.362 23.4109 136.144 23.4109 134.408C23.4109 132.686 22.0809 131.454 20.2749 131.454ZM20.9749 127.632H19.5329V129.382H16.5229V130.558H23.9289V129.382H20.9749V127.632ZM28.3529 132.518H26.4069V127.436H24.9509V140.092H26.4069V133.722H28.3529V132.518ZM39.6218 131.062H32.3838V127.884H30.9418V132.238H39.6218V131.062ZM32.2998 136.074H30.8578V139.798H39.6918V138.636H32.2998V136.074ZM29.4578 133.75V134.912H40.9378V133.75H29.4578ZM45.4953 137.306V138.496H56.9473V137.306H45.4953ZM46.7833 128.304V134.968H55.6313V128.304H54.2033V130.516H48.2113V128.304H46.7833ZM48.2113 131.664H54.2033V133.806H48.2113V131.664ZM66.2982 132.308H67.6982V136.858H69.0702V127.422H67.6982V131.132H66.2982V127.66H64.9542V136.522H66.2982V132.308ZM64.2822 133.54C62.9662 133.792 61.8182 133.862 60.3062 133.876V132.252H63.6662V128.486H58.8782V129.634H62.2662V131.188H58.9062V135.038H59.7602C61.6082 135.038 62.8822 134.982 64.4082 134.702L64.2822 133.54ZM62.1682 138.664V135.976H60.7122V139.84H69.4202V138.664H62.1682ZM81.4171 133.4H74.0951V129.718H81.3191V128.542H72.6531V134.562H81.4171V133.4ZM71.2531 137.264V138.454H82.7191V137.264H71.2531ZM88.206 128.318C86.232 128.318 84.776 129.564 84.776 131.356C84.776 133.148 86.232 134.394 88.206 134.394C90.18 134.394 91.65 133.148 91.65 131.356C91.65 129.564 90.18 128.318 88.206 128.318ZM88.206 129.55C89.382 129.55 90.236 130.25 90.236 131.356C90.236 132.448 89.382 133.162 88.206 133.162C87.044 133.162 86.19 132.448 86.19 131.356C86.19 130.25 87.044 129.55 88.206 129.55ZM93.078 127.422V140.092H94.534V127.422H93.078ZM84.37 137.418C86.61 137.418 89.634 137.39 92.42 136.858L92.322 135.808C89.606 136.214 86.456 136.228 84.188 136.228L84.37 137.418ZM104.579 128.486H103.137V130.558C103.137 132.896 101.905 135.29 99.9314 136.256L100.813 137.418C102.255 136.676 103.319 135.206 103.865 133.456C104.411 135.108 105.419 136.48 106.777 137.18L107.659 136.032C105.755 135.094 104.579 132.812 104.579 130.558V128.486ZM111.915 132.448H109.941V127.436H108.499V140.078H109.941V133.638H111.915V132.448ZM121.98 127.422V140.106H123.436V127.422H121.98ZM116.702 128.36C114.826 128.36 113.454 130.096 113.454 132.812C113.454 135.556 114.826 137.278 116.702 137.278C118.592 137.278 119.964 135.556 119.964 132.812C119.964 130.096 118.592 128.36 116.702 128.36ZM116.702 129.662C117.808 129.662 118.578 130.852 118.578 132.812C118.578 134.8 117.808 135.99 116.702 135.99C115.61 135.99 114.84 134.8 114.84 132.812C114.84 130.852 115.61 129.662 116.702 129.662ZM126.991 135.262C129.035 134.87 130.813 133.68 131.625 132.042C132.451 133.666 134.243 134.814 136.315 135.206L136.903 134.058C134.397 133.68 132.381 131.972 132.381 130.068V129.774H136.399V128.598H126.851V129.774H130.869V130.068C130.869 131.972 128.867 133.708 126.403 134.114L126.991 135.262ZM125.913 137.306V138.482H137.365V137.306H125.913ZM147.374 129.592H140.248V132.434H149.026V131.426H141.662V130.53H148.802V127.744H140.22V128.738H147.374V129.592ZM141.564 137.978H148.844V135.15H140.108V136.144H147.416V137.04H140.136V139.938H149.222V138.944H141.564V137.978ZM138.778 133.232V134.296H150.244V133.232H138.778ZM156.37 130.684C156.37 129.676 157.182 129.018 158.302 129.018C159.408 129.018 160.206 129.676 160.206 130.684C160.206 131.692 159.408 132.364 158.302 132.364C157.182 132.364 156.37 131.692 156.37 130.684ZM161.606 130.684C161.606 129.018 160.206 127.842 158.302 127.842C156.384 127.842 154.97 129.018 154.97 130.684C154.97 132.35 156.384 133.526 158.302 133.526C160.206 133.526 161.606 132.35 161.606 130.684ZM157.966 137.628H164.686V134.366H156.524V135.5H163.258V136.578H156.552V139.924H165.106V138.776H157.966V137.628ZM164.686 130.026V127.422H163.244V133.82H164.686V131.216H166.464V130.026H164.686ZM171.054 135.99C169.948 135.99 169.192 134.8 169.192 132.826C169.192 130.852 169.948 129.662 171.054 129.662C172.146 129.662 172.916 130.852 172.916 132.826C172.916 134.8 172.146 135.99 171.054 135.99ZM171.054 128.36C169.164 128.36 167.806 130.096 167.806 132.826C167.806 135.556 169.164 137.278 171.054 137.278C172.944 137.278 174.302 135.556 174.302 132.826C174.302 130.096 172.944 128.36 171.054 128.36ZM179.454 132.378H177.48V127.436H176.038V140.092H177.48V133.568H179.454V132.378ZM181.189 128.766V129.942H185.613C185.319 132.854 183.653 135.08 180.559 136.662L181.357 137.768C185.487 135.682 187.055 132.434 187.055 128.766H181.189ZM192.277 132.42H190.359V127.422H188.917V140.064H190.359V133.624H192.277V132.42ZM197.33 128.598H195.93V130.88C195.93 133.036 195.062 135.304 193.27 136.368L194.152 137.46C195.37 136.718 196.196 135.388 196.644 133.834C197.078 135.248 197.834 136.48 198.982 137.18L199.794 136.06C198.1 134.996 197.33 132.854 197.33 130.81V128.598ZM200.298 131.86H198.436V133.036H200.298V139.49H201.656V127.674H200.298V131.86ZM202.874 127.436V140.078H204.246V127.436H202.874ZM210.447 134.604C210.937 134.716 211.483 134.772 212.043 134.772C212.603 134.772 213.149 134.716 213.639 134.59V137.348H210.447V134.604ZM212.043 129.298C213.947 129.298 215.277 130.138 215.277 131.468C215.277 132.812 213.947 133.652 212.043 133.652C210.125 133.652 208.795 132.812 208.795 131.468C208.795 130.138 210.125 129.298 212.043 129.298ZM215.081 137.348V134.058C216.089 133.484 216.691 132.588 216.691 131.468C216.691 129.452 214.731 128.164 212.043 128.164C209.341 128.164 207.395 129.452 207.395 131.468C207.395 132.588 207.997 133.498 209.005 134.058V137.348H206.331V138.524H217.783V137.348H215.081ZM220.358 135.71H221.436L221.66 130.11L221.716 128.444H220.092L220.134 130.11L220.358 135.71ZM220.89 139.182C221.506 139.182 221.982 138.72 221.982 138.062C221.982 137.39 221.506 136.914 220.89 136.914C220.288 136.914 219.826 137.39 219.826 138.062C219.826 138.72 220.288 139.182 220.89 139.182Z" fill="white"/>
</g>
<rect width="117" height="25" transform="translate(3)" fill="white"/>
<path d="M15.6218 8.076V18.948H16.8698V8.076H15.6218ZM11.0978 8.88C9.4898 8.88 8.3138 10.368 8.3138 12.696C8.3138 15.048 9.4898 16.524 11.0978 16.524C12.7178 16.524 13.8938 15.048 13.8938 12.696C13.8938 10.368 12.7178 8.88 11.0978 8.88ZM11.0978 9.996C12.0458 9.996 12.7058 11.016 12.7058 12.696C12.7058 14.4 12.0458 15.42 11.0978 15.42C10.1618 15.42 9.5018 14.4 9.5018 12.696C9.5018 11.016 10.1618 9.996 11.0978 9.996ZM22.2809 10.284H24.0689V9.264H19.1729V10.284H21.0809V11.064C21.0809 12.996 20.3609 14.952 18.8249 15.912L19.5689 16.824C20.6129 16.164 21.3089 15 21.6929 13.632C22.0769 14.892 22.7489 15.96 23.7689 16.56L24.4889 15.66C22.9769 14.784 22.2809 12.912 22.2809 11.064V10.284ZM24.8729 11.892H23.2769V12.9H24.8729V18.396H26.0369V8.292H24.8729V11.892ZM27.0569 8.076V18.912H28.2329V8.076H27.0569ZM37.0232 15.372H34.3352V12.72H37.0232V15.372ZM37.0232 11.736H34.3352V8.976H33.0992V16.368H38.2472V8.976H37.0232V11.736ZM42.8072 12.252H41.1152V8.088H39.8792V18.936H41.1152V13.284H42.8072V12.252ZM47.7623 10.188H50.1743V9.168H44.1023V10.188H46.5143V11.22C46.5143 13.08 45.3983 15.096 43.7183 15.876L44.4263 16.86C45.6983 16.248 46.6703 14.964 47.1503 13.452C47.6543 14.856 48.6263 16.032 49.8863 16.584L50.5703 15.612C48.8783 14.892 47.7623 13.02 47.7623 11.22V10.188ZM51.4343 8.088V18.924H52.6823V8.088H51.4343ZM64.1774 12.084C61.9934 11.772 60.3614 10.416 60.3614 9.012V8.436H59.0534V9.012C59.0534 10.44 57.4454 11.772 55.2374 12.084L55.7174 13.08C57.5174 12.792 59.0174 11.892 59.7134 10.632C60.4214 11.88 61.8974 12.792 63.6974 13.08L64.1774 12.084ZM64.5974 14.1H54.8054V15.108H59.0534V18.936H60.2894V15.108H64.5974V14.1ZM73.5844 16.152H74.8204V8.088H73.5844V10.524H71.3884V11.544H73.5844V16.152ZM72.2404 13.488C70.6204 12.9 69.7084 11.496 69.7084 10.032V8.748H68.4484V10.008C68.4484 11.616 67.5124 13.14 65.8204 13.74L66.4804 14.7C67.7284 14.22 68.6284 13.26 69.1084 12.048C69.5644 13.14 70.4164 14.016 71.5804 14.448L72.2404 13.488ZM69.0124 17.712V15.3H67.7644V18.72H75.0724V17.712H69.0124ZM81.7795 9.42C83.3635 9.42 84.3595 9.864 84.3595 10.62C84.3595 11.388 83.3635 11.832 81.7795 11.832C80.1835 11.832 79.1875 11.388 79.1875 10.62C79.1875 9.864 80.1835 9.42 81.7795 9.42ZM81.7795 12.828C84.1195 12.828 85.6435 12 85.6435 10.62C85.6435 9.252 84.1195 8.424 81.7795 8.424C79.4395 8.424 77.9155 9.252 77.9155 10.62C77.9155 12 79.4395 12.828 81.7795 12.828ZM79.3555 15.564H78.1075V18.72H85.5835V17.712H79.3555V15.564ZM76.8715 13.704V14.712H86.6755V13.704H76.8715ZM97.9259 10.332C97.9259 11.736 97.9259 13.332 97.5059 15.468L98.7539 15.6C99.1619 13.308 99.1619 11.784 99.1619 10.332V9.168H91.6619V10.164H97.9259V10.332ZM90.6179 16.392V17.412H100.422V16.392H90.6179ZM105.893 13.14H103.253V10.008H105.893V13.14ZM107.105 9.012H102.029V14.136H107.105V9.012ZM104.501 15.252H103.253V18.72H110.549V17.712H104.501V15.252ZM110.117 11.304V8.076H108.881V16.02H110.117V12.324H111.653V11.304H110.117ZM113.032 20.4C114.268 19.932 115 18.96 115 17.7C115 16.776 114.604 16.212 113.932 16.212C113.404 16.212 112.972 16.56 112.972 17.1C112.972 17.676 113.404 17.988 113.896 17.988C113.944 17.988 113.98 17.988 114.028 17.976C114.028 18.672 113.548 19.284 112.72 19.62L113.032 20.4Z" fill="#212121"/>
<g filter="url(#filter1_ddd_850_17002)">
<path d="M20.02 38.84V36H16.64V45.4H20.02V42.12H22.02V38.84H20.02ZM15.84 44.12V41.4C14.94 41.76 13.44 41.96 11.9 41.96H7.74V38.98H14.86V36.2H4.36V44.72H11.76C13.36 44.72 14.96 44.5 15.84 44.12ZM12.48 45.64C8.18 45.64 4.78 46.62 4.78 49.46C4.78 52.3 8.18 53.28 12.48 53.28C16.78 53.28 20.18 52.3 20.18 49.46C20.18 46.62 16.78 45.64 12.48 45.64ZM12.48 50.58C10.22 50.58 8.42 50.28 8.42 49.46C8.42 48.66 10.22 48.34 12.48 48.34C14.74 48.34 16.54 48.66 16.54 49.46C16.54 50.28 14.74 50.58 12.48 50.58ZM39.7383 36H36.3583V48.64H39.7383V36ZM29.3983 42.86L33.7383 46.08L35.7183 43.68L30.7983 40.2C31.2383 38.98 31.4783 37.64 31.4783 36.28L28.0783 36.08C28.0183 39.84 26.1383 42.86 23.4383 43.18V46.32C25.8583 46.2 27.9583 44.84 29.3983 42.86ZM27.8983 50.04V47.1H24.4583V53.08H39.9783V50.04H27.8983ZM59.0166 36H55.6366V53.08H59.0166V36ZM48.3766 36.12C45.1966 36.12 42.9166 38.32 42.9166 41.66C42.9166 45 45.1966 47.2 48.3766 47.2C51.5366 47.2 53.8166 45 53.8166 41.66C53.8166 38.32 51.5366 36.12 48.3766 36.12ZM48.3766 39.14C49.7166 39.14 50.5766 40.22 50.5766 41.66C50.5766 43.12 49.7166 44.18 48.3766 44.18C47.0166 44.18 46.1766 43.12 46.1766 41.66C46.1766 40.22 47.0166 39.14 48.3766 39.14ZM54.6566 51.56V48.44C53.5966 48.92 51.8166 49.12 50.2366 49.12H42.4566V52.28H50.0966C51.7966 52.28 53.5966 52.04 54.6566 51.56ZM85.3403 42.24H83.3403V36H79.9603V53.08H83.3403V45.52H85.3403V42.24ZM75.3203 36.46L71.8803 36.34C71.8603 43.48 70.0403 48.48 67.3003 48.8V52.28C69.9003 52.26 72.0403 50.48 73.4403 47.28L76.8403 52.26L79.6003 50.32L74.6603 43.36C75.0803 41.36 75.3203 39.04 75.3203 36.46ZM103.059 36H99.6786V53.08H103.059V36ZM92.4186 36.2C89.1986 36.2 87.0386 38.72 87.0386 44.34C87.0386 49.96 89.1986 52.48 92.4186 52.48C95.6386 52.48 97.7786 49.96 97.7786 44.34C97.7786 38.72 95.6386 36.2 92.4186 36.2ZM92.4186 39.3C93.5386 39.3 94.4386 40.52 94.4386 44.34C94.4386 48.18 93.5386 49.38 92.4186 49.38C91.2786 49.38 90.3786 48.18 90.3786 44.34C90.3786 40.52 91.2786 39.3 92.4186 39.3ZM114.417 43.44L121.317 47.04L122.897 44.32L116.057 40.84C116.217 40.42 116.357 39.96 116.477 39.5H122.177V36.4H106.657V39.5H112.757C111.837 42.16 109.197 43.74 106.357 43.8V46.9C109.517 46.88 112.497 45.6 114.417 43.44ZM105.777 49.32V52.48H123.057V49.32H105.777ZM141.255 36H126.035V37.96H137.995V38.56H126.075V42.84H141.435V40.9H129.335V40.3H141.255V36ZM142.295 43.42H125.015V45.66H142.295V43.42ZM141.295 46.24H125.995V48.18H138.035V48.78H126.035V53.08H141.475V51.12H129.295V50.52H141.295V46.24ZM165.739 45.74L166.759 42.82L160.019 40.88C160.119 40.64 160.219 40.4 160.279 40.14H166.199V37.08H160.219V35.58H156.739V37.08H150.799V40.14H156.399C155.379 41.64 153.019 42.56 150.439 42.64V45.74C153.439 45.68 156.159 44.82 158.019 43.36L165.739 45.74ZM167.139 46.74H149.859V49.84H156.779V53.48H160.219V49.84H167.139V46.74ZM175.077 44.12L179.437 46.76L181.097 44.24L176.517 41.56C176.657 41.14 176.737 40.72 176.797 40.28H180.077V42.88H182.317V48.7H185.697V36H182.317V39.76H180.557V37.46H176.797V35.7H173.357V37.46H169.597V40.28H173.377C173.017 42.12 171.597 43.72 169.397 43.92V46.86C171.757 46.8 173.757 45.68 175.077 44.12ZM173.857 50.1V47.76H170.417V53.08H185.937V50.1H173.857ZM204.675 36.4H189.275V46.96H204.875V43.84H192.735V39.54H204.675V36.4ZM205.615 49.32H188.335V52.48H205.615V49.32ZM220.714 36V45.5H224.094V36H220.714ZM208.134 39.66V45.46H215.834C217.434 45.46 218.934 45.24 219.814 44.86V42.34C218.914 42.72 217.414 42.94 215.874 42.94H211.474V42H218.514V36.2H208.094V38.72H215.174V39.66H208.134ZM220.734 47.06H212.174V46.1H208.814V53.08H224.094V46.1H220.734V47.06ZM212.174 50.5V49.56H220.734V50.5H212.174ZM243.332 36H239.952V53.08H243.332V36ZM231.052 36.3H227.572V52.28H234.632C236.272 52.28 238.012 51.98 239.052 51.46V48.38C238.012 48.88 236.252 49.2 234.632 49.2H231.052V36.3ZM264.09 42.24H262.09V36H258.71V53.08H262.09V45.52H264.09V42.24ZM250.07 49.22V39.46H256.57V36.4H246.63V52.28H253.25C254.89 52.28 256.87 52 257.91 51.48V48.46C256.87 48.94 255.11 49.22 253.49 49.22H250.07ZM267.249 48.96C266.089 48.96 265.249 49.82 265.249 50.96C265.249 52.1 266.089 52.96 267.249 52.96C268.389 52.96 269.229 52.1 269.229 50.96C269.229 49.82 268.389 48.96 267.249 48.96ZM20.02 66.84V64H16.64V73.4H20.02V70.12H22.02V66.84H20.02ZM15.84 72.12V69.4C14.94 69.76 13.44 69.96 11.9 69.96H7.74V66.98H14.86V64.2H4.36V72.72H11.76C13.36 72.72 14.96 72.5 15.84 72.12ZM12.48 73.64C8.18 73.64 4.78 74.62 4.78 77.46C4.78 80.3 8.18 81.28 12.48 81.28C16.78 81.28 20.18 80.3 20.18 77.46C20.18 74.62 16.78 73.64 12.48 73.64ZM12.48 78.58C10.22 78.58 8.42 78.28 8.42 77.46C8.42 76.66 10.22 76.34 12.48 76.34C14.74 76.34 16.54 76.66 16.54 77.46C16.54 78.28 14.74 78.58 12.48 78.58ZM39.7383 64H36.3583V76.64H39.7383V64ZM29.3983 70.86L33.7383 74.08L35.7183 71.68L30.7983 68.2C31.2383 66.98 31.4783 65.64 31.4783 64.28L28.0783 64.08C28.0183 67.84 26.1383 70.86 23.4383 71.18V74.32C25.8583 74.2 27.9583 72.84 29.3983 70.86ZM27.8983 78.04V75.1H24.4583V81.08H39.9783V78.04H27.8983ZM58.9766 64H55.5966V81.08H58.9766V64ZM48.3366 64.2C45.1166 64.2 42.9566 66.72 42.9566 72.34C42.9566 77.96 45.1166 80.48 48.3366 80.48C51.5566 80.48 53.6966 77.96 53.6966 72.34C53.6966 66.72 51.5566 64.2 48.3366 64.2ZM48.3366 67.3C49.4566 67.3 50.3566 68.52 50.3566 72.34C50.3566 76.18 49.4566 77.38 48.3366 77.38C47.1966 77.38 46.2966 76.18 46.2966 72.34C46.2966 68.52 47.1966 67.3 48.3366 67.3ZM73.3803 70.78C76.4603 70.78 78.6203 69.62 78.6203 67.3C78.6203 64.98 76.4603 63.82 73.3803 63.82C70.3003 63.82 68.1403 64.98 68.1403 67.3C68.1403 69.62 70.3003 70.78 73.3803 70.78ZM76.1603 74.44V76.78H80.5603V77.26H83.9403V64H80.5603V74.44H76.1603ZM73.3803 66.3C74.5803 66.3 75.3603 66.62 75.3603 67.3C75.3603 67.98 74.5803 68.3 73.3803 68.3C72.1803 68.3 71.4003 67.98 71.4003 67.3C71.4003 66.62 72.1803 66.3 73.3803 66.3ZM72.0403 78.26V76.54H74.7403V73.96H75.1003C76.8003 73.96 78.5203 73.8 79.5803 73.34V70.74C78.5203 71.2 76.7403 71.36 75.1603 71.36H67.3003V73.96H71.3803V75.66H68.6603V81.08H84.1803V78.26H72.0403ZM94.1786 63.94H90.7186V66.06H86.8986V69.14H97.9786V66.06H94.1786V63.94ZM104.579 70.24H102.579V64H99.1986V81.08H102.579V73.52H104.579V70.24ZM92.4386 69.84C89.3586 69.84 87.4786 72.14 87.4786 75.16C87.4786 78.2 89.3586 80.48 92.4386 80.48C95.5186 80.48 97.3986 78.2 97.3986 75.16C97.3986 72.14 95.5186 69.84 92.4386 69.84ZM92.4386 77.58C91.3386 77.58 90.6986 76.62 90.6986 75.16C90.6986 73.7 91.3386 72.74 92.4386 72.74C93.5386 72.74 94.1786 73.7 94.1786 75.16C94.1786 76.62 93.5386 77.58 92.4386 77.58ZM110.217 63.9H106.817V70.84H122.177V68.04H110.217V63.9ZM123.057 72.02H105.777V74.84H123.057V72.02ZM110.217 75.78H106.777V81.08H122.257V78.26H110.217V75.78ZM148.661 70.24H146.661V64H143.281V81.08H146.661V73.52H148.661V70.24ZM137.821 69.42H134.521V64.4H131.201V80.28H141.141V64.4H137.821V69.42ZM134.521 77.18V72.5H137.821V77.18H134.521ZM162.999 64V81.08H166.379V64H162.999ZM157.899 67.5H161.559V64.4H150.639V67.5H154.499C154.379 72.98 152.659 76.6 150.159 76.88V80.28C152.759 80.26 154.939 78.56 156.319 75.52L159.759 80.2L162.439 78.2L157.479 71.76C157.719 70.46 157.859 69.04 157.899 67.5ZM192.743 70.24H190.743V64H187.363V81.08H190.743V73.52H192.743V70.24ZM182.723 64.46L179.283 64.34C179.263 71.48 177.443 76.48 174.703 76.8V80.28C177.303 80.26 179.443 78.48 180.843 75.28L184.243 80.26L187.003 78.32L182.063 71.36C182.483 69.36 182.723 67.04 182.723 64.46ZM210.461 64H207.081V81.08H210.461V64ZM199.821 64.2C196.601 64.2 194.441 66.72 194.441 72.34C194.441 77.96 196.601 80.48 199.821 80.48C203.041 80.48 205.181 77.96 205.181 72.34C205.181 66.72 203.041 64.2 199.821 64.2ZM199.821 67.3C200.941 67.3 201.841 68.52 201.841 72.34C201.841 76.18 200.941 77.38 199.821 77.38C198.681 77.38 197.781 76.18 197.781 72.34C197.781 68.52 198.681 67.3 199.821 67.3ZM221.819 71.44L228.719 75.04L230.299 72.32L223.459 68.84C223.619 68.42 223.759 67.96 223.879 67.5H229.579V64.4H214.059V67.5H220.159C219.239 70.16 216.599 71.74 213.759 71.8V74.9C216.919 74.88 219.899 73.6 221.819 71.44ZM213.179 77.32V80.48H230.459V77.32H213.179ZM236.858 63.9H233.458V70.84H248.818V68.04H236.858V63.9ZM249.698 72.02H232.418V74.84H249.698V72.02ZM236.858 75.78H233.418V81.08H248.898V78.26H236.858V75.78ZM275.301 70.08H273.341V64H269.961V81.08H273.341V73.36H275.301V70.08ZM264.481 75.18H267.881V64.5H257.781V67.64H264.481V75.18ZM262.841 77.12V70.94H259.441V77.12H257.261V80.28H264.501C266.201 80.28 267.921 80.08 268.981 79.6V76.44C267.921 76.92 266.141 77.12 264.561 77.12H262.841ZM287.9 69.92L287.7 72.9H289.78V76.66H293.1V64H289.78V65.32H287.7L287.9 68.3H289.78V69.92H287.9ZM287.38 69.14C287.38 66.06 285.16 64.02 281.88 64.02C278.6 64.02 276.38 66.06 276.38 69.14C276.38 72.24 278.6 74.26 281.88 74.26C285.16 74.26 287.38 72.24 287.38 69.14ZM279.72 69.14C279.72 67.66 280.6 66.84 281.88 66.84C283.16 66.84 284.04 67.66 284.04 69.14C284.04 70.62 283.16 71.44 281.88 71.44C280.6 71.44 279.72 70.62 279.72 69.14ZM281.46 78.06V75.1H278.02V81.08H293.34V78.06H281.46ZM299.398 75.4H302.698C302.698 74.28 303.158 73.56 304.618 72.42C305.918 71.42 306.638 70.24 306.638 68.76C306.638 66.04 304.678 64.06 301.218 64.06C297.978 64.06 295.698 66.22 295.698 69.1H299.178C299.178 68.08 299.898 67.14 301.238 67.14C302.498 67.14 303.218 67.76 303.218 68.76C303.218 69.72 302.578 70.32 301.398 71.22C299.938 72.32 299.398 73.42 299.398 75.4ZM301.158 81.08C302.378 81.08 303.278 80.2 303.278 78.98C303.278 77.76 302.378 76.86 301.158 76.86C299.938 76.86 299.038 77.76 299.038 78.98C299.038 80.2 299.938 81.08 301.158 81.08Z" fill="white"/>
</g>
<defs>
<filter id="filter0_ddd_850_17002" x="0.643555" y="105.422" width="224.339" height="38.6846" filterUnits="userSpaceOnUse" color-interpolation-filters="sRGB">
<feFlood flood-opacity="0" result="BackgroundImageFix"/>
<feColorMatrix in="SourceAlpha" type="matrix" values="0 0 0 0 0 0 0 0 0 0 0 0 0 0 0 0 0 0 127 0" result="hardAlpha"/>
<feOffset/>
<feGaussianBlur stdDeviation="1"/>
<feColorMatrix type="matrix" values="0 0 0 0 0 0 0 0 0 0 0 0 0 0 0 0 0 0 0.16 0"/>
<feBlend mode="normal" in2="BackgroundImageFix" result="effect1_dropShadow_850_17002"/>
<feColorMatrix in="SourceAlpha" type="matrix" values="0 0 0 0 0 0 0 0 0 0 0 0 0 0 0 0 0 0 127 0" result="hardAlpha"/>
<feOffset dy="2"/>
<feGaussianBlur stdDeviation="1"/>
<feColorMatrix type="matrix" values="0 0 0 0 0 0 0 0 0 0 0 0 0 0 0 0 0 0 0.16 0"/>
<feBlend mode="normal" in2="effect1_dropShadow_850_17002" result="effect2_dropShadow_850_17002"/>
<feColorMatrix in="SourceAlpha" type="matrix" values="0 0 0 0 0 0 0 0 0 0 0 0 0 0 0 0 0 0 127 0" result="hardAlpha"/>
<feOffset dy="1"/>
<feGaussianBlur stdDeviation="1.5"/>
<feColorMatrix type="matrix" values="0 0 0 0 0 0 0 0 0 0 0 0 0 0 0 0 0 0 0.16 0"/>
<feBlend mode="normal" in2="effect2_dropShadow_850_17002" result="effect3_dropShadow_850_17002"/>
<feBlend mode="normal" in="SourceGraphic" in2="effect3_dropShadow_850_17002" result="shape"/>
</filter>
<filter id="filter1_ddd_850_17002" x="1.36035" y="33.5801" width="308.277" height="51.7002" filterUnits="userSpaceOnUse" color-interpolation-filters="sRGB">
<feFlood flood-opacity="0" result="BackgroundImageFix"/>
<feColorMatrix in="SourceAlpha" type="matrix" values="0 0 0 0 0 0 0 0 0 0 0 0 0 0 0 0 0 0 127 0" result="hardAlpha"/>
<feOffset/>
<feGaussianBlur stdDeviation="1"/>
<feColorMatrix type="matrix" values="0 0 0 0 0 0 0 0 0 0 0 0 0 0 0 0 0 0 0.16 0"/>
<feBlend mode="normal" in2="BackgroundImageFix" result="effect1_dropShadow_850_17002"/>
<feColorMatrix in="SourceAlpha" type="matrix" values="0 0 0 0 0 0 0 0 0 0 0 0 0 0 0 0 0 0 127 0" result="hardAlpha"/>
<feOffset dy="2"/>
<feGaussianBlur stdDeviation="1"/>
<feColorMatrix type="matrix" values="0 0 0 0 0 0 0 0 0 0 0 0 0 0 0 0 0 0 0.16 0"/>
<feBlend mode="normal" in2="effect1_dropShadow_850_17002" result="effect2_dropShadow_850_17002"/>
<feColorMatrix in="SourceAlpha" type="matrix" values="0 0 0 0 0 0 0 0 0 0 0 0 0 0 0 0 0 0 127 0" result="hardAlpha"/>
<feOffset dy="1"/>
<feGaussianBlur stdDeviation="1.5"/>
<feColorMatrix type="matrix" values="0 0 0 0 0 0 0 0 0 0 0 0 0 0 0 0 0 0 0.16 0"/>
<feBlend mode="normal" in2="effect2_dropShadow_850_17002" result="effect3_dropShadow_850_17002"/>
<feBlend mode="normal" in="SourceGraphic" in2="effect3_dropShadow_850_17002" result="shape"/>
</filter>
</defs>
</svg>
