<svg width="343" height="216" viewBox="0 0 343 216" fill="none" xmlns="http://www.w3.org/2000/svg">
<rect x="0.5" y="0.5" width="342" height="215" rx="7.5" stroke="#E0E0E0"/>
<path d="M190.415 0H215.656C216.315 0 216.799 0.626449 216.656 1.27703C214.266 12.1754 215.763 20.3131 216.9 23.2342C216.934 23.3235 216.979 23.3986 217.036 23.4756C218.988 26.1328 222.04 36.0763 219.237 55.7158C216.442 75.2994 218.814 90.5338 220.423 96.0064C220.477 96.192 220.48 96.3823 220.431 96.5695L211.834 129.266C211.515 130.479 208.689 130.137 208.566 128.887C207.908 122.179 206.622 115.66 205.78 112.202C204.68 109.292 202.581 102.497 202.987 98.5938C203.394 94.6912 200.448 83.103 198.925 77.7967C195.032 66.4139 187.652 41.0808 189.277 30.8106C190.806 21.1438 190.057 7.6859 189.399 1.14204C189.337 0.531785 189.809 0 190.415 0Z" fill="#F7BDB1"/>
<path fill-rule="evenodd" clip-rule="evenodd" d="M188.364 1.84555C188.262 0.861902 189.043 0 190.054 0H215.932C217.036 0 217.826 1.01633 217.592 2.05425C215.165 12.8263 216.701 20.8175 217.812 23.5988C217.822 23.6226 217.835 23.6481 217.868 23.6922C218.968 25.1493 220.27 28.4236 220.948 33.7285C221.63 39.0588 221.69 46.4999 220.247 56.3483C217.393 75.8122 219.822 90.9253 221.442 96.2926C221.533 96.5913 221.537 96.9015 221.456 97.2019L212.642 129.839C212.489 130.405 212.043 130.736 211.599 130.902C211.159 131.065 210.653 131.098 210.187 131.044C209.72 130.99 209.234 130.843 208.838 130.59C208.443 130.337 208.072 129.931 208.015 129.36C207.346 122.724 206.041 116.27 205.184 112.833C204.612 111.355 203.792 108.926 203.163 106.372C202.534 103.816 202.075 101.055 202.296 98.9909C202.391 98.1014 202.291 96.7152 202.043 95.0062C201.798 93.3126 201.414 91.3526 200.967 89.3404C200.074 85.3245 198.936 81.1312 198.158 78.4922C196.157 72.7942 193.264 63.6193 191.078 54.579C189.984 50.0549 189.064 45.5549 188.523 41.5359C187.983 37.5294 187.812 33.952 188.244 31.2949C189.798 21.7311 189.037 8.36572 188.364 1.84555ZM190.054 1.28147C189.82 1.28147 189.634 1.48124 189.659 1.71591C190.334 8.26002 191.111 21.7622 189.529 31.4974C189.128 33.9662 189.278 37.3942 189.813 41.3675C190.347 45.3283 191.256 49.7826 192.344 54.2822C194.52 63.2812 197.403 72.4231 199.393 78.0886L199.399 78.1039L199.403 78.1194C200.187 80.7782 201.336 85.0084 202.238 89.0665C202.689 91.0952 203.08 93.0886 203.332 94.825C203.582 96.546 203.703 98.0667 203.59 99.125C203.394 100.956 203.804 103.535 204.428 106.07C205.048 108.587 205.859 110.983 206.414 112.413L206.429 112.45L206.438 112.488C207.307 115.965 208.632 122.503 209.31 129.234C209.316 129.287 209.354 129.391 209.548 129.515C209.741 129.639 210.024 129.735 210.338 129.771C210.653 129.808 210.94 129.777 211.139 129.703C211.334 129.63 211.373 129.55 211.384 129.51L220.198 96.8726C220.218 96.7993 220.217 96.7295 220.195 96.6578C218.517 91.0995 216.08 75.7983 218.958 56.1652C220.389 46.4092 220.321 39.0853 219.657 33.8886C218.989 28.6665 217.726 25.6518 216.824 24.4564C216.741 24.3467 216.663 24.2224 216.601 24.0679C215.382 21.0173 213.847 12.7623 216.322 1.77671C216.381 1.5158 216.179 1.28147 215.932 1.28147H190.054Z" fill="black"/>
<path fill-rule="evenodd" clip-rule="evenodd" d="M212.037 95.0801C210.725 95.4516 209.608 96.4589 208.994 97.2671C208.75 97.5881 208.347 97.598 208.094 97.2892C207.84 96.9804 207.832 96.4697 208.076 96.1487C208.821 95.168 210.15 93.9616 211.759 93.5058C213.405 93.0395 215.32 93.3713 217.116 95.4404C217.376 95.7401 217.395 96.2503 217.158 96.5798C216.922 96.9094 216.519 96.9335 216.259 96.6337C214.794 94.9463 213.312 94.719 212.037 95.0801Z" fill="#B2544C"/>
<path d="M208.173 149.643C207.762 137.735 216.049 107.928 220.266 94.4366C220.282 94.3857 220.293 94.336 220.301 94.2832C224.392 66.8613 237.188 43.0461 243.285 34.2359C243.422 34.0381 243.48 33.8086 243.46 33.5691L240.749 1.11389C240.698 0.514265 241.173 0 241.776 0H337.875C340.153 0 342.999 2.84185 342.999 5.1139V144.33C342.999 145.207 341.978 145.674 341.327 145.083C335.107 139.438 321.984 126.012 307.939 106.961C292.472 85.9806 280.527 98.2195 276.489 106.961C252.565 151.392 249.646 167.642 250.452 174.07C250.795 176.812 249.884 184.251 243.491 192.068C237.2 199.76 236.384 205.758 236.769 207.908C236.781 207.977 236.789 208.045 236.789 208.115V213.923C236.789 214.491 236.327 214.951 235.757 214.951H200.549C199.939 214.951 199.461 214.433 199.525 213.827C200.393 205.646 202.584 188.473 205.338 176.898C208.947 161.728 208.689 164.556 208.173 149.643Z" fill="#F7BDB1"/>
<path fill-rule="evenodd" clip-rule="evenodd" d="M240.384 1.80808C240.303 0.83476 241.067 0 242.039 0H338.272C340.883 0 342.999 2.12731 342.999 4.75148V144.814C342.999 146.226 341.344 147.021 340.273 146.041C334.077 140.373 321.042 126.93 307.098 107.867C299.503 97.4833 292.955 95.5485 287.954 96.9703C282.844 98.4227 278.993 103.455 277.022 107.755L277.014 107.773L277.005 107.79C265.158 129.965 258.524 145.085 254.952 155.449C251.376 165.825 250.89 171.377 251.271 174.441C251.635 177.372 250.668 184.976 244.233 192.905C238.066 200.505 237.368 206.312 237.705 208.209C237.722 208.308 237.734 208.414 237.734 208.529V214.331C237.734 215.253 236.991 216 236.074 216H201.179C200.203 216 199.425 215.159 199.529 214.167C200.389 205.991 202.564 188.802 205.303 177.198C205.64 175.772 205.942 174.508 206.213 173.374C207.388 168.455 207.973 166.005 208.228 163.57C208.491 161.056 208.401 158.572 208.213 153.404C208.177 152.42 208.138 151.34 208.097 150.143C207.889 144.095 209.864 133.594 212.386 122.992C214.915 112.36 218.017 101.533 220.111 94.784C220.116 94.7666 220.12 94.7494 220.123 94.7275C224.195 67.2169 236.924 43.3368 243.008 34.4757C243.057 34.4047 243.079 34.3241 243.071 34.2277L240.384 1.80808ZM242.039 1.28419C241.814 1.28419 241.638 1.47683 241.657 1.70144L244.344 34.1211C244.376 34.5031 244.282 34.8811 244.06 35.2052C238.059 43.9452 225.424 67.6433 221.387 94.9165C221.375 94.9999 221.356 95.082 221.33 95.1663C219.243 101.894 216.149 112.692 213.628 123.29C211.101 133.918 209.173 144.252 209.373 150.099C209.414 151.284 209.453 152.358 209.489 153.34C209.677 158.499 209.772 161.093 209.498 163.705C209.234 166.23 208.624 168.783 207.446 173.711C207.177 174.838 206.878 176.09 206.546 177.494C203.827 189.014 201.659 206.135 200.799 214.302C200.776 214.52 200.945 214.716 201.179 214.716H236.074C236.285 214.716 236.457 214.543 236.457 214.331V208.529C236.457 208.504 236.454 208.475 236.447 208.435C236.021 206.038 236.94 199.86 243.244 192.094C249.481 184.407 250.32 177.148 250.003 174.6C249.586 171.244 250.147 165.469 253.745 155.029C257.347 144.578 264.013 129.397 275.87 107.2C277.905 102.771 281.971 97.3363 287.606 95.7346C293.356 94.1 300.393 96.5314 308.127 107.106C322.022 126.101 335 139.481 341.133 145.091C341.352 145.292 341.722 145.154 341.722 144.814V4.75148C341.722 2.83655 340.177 1.28419 338.272 1.28419H242.039Z" fill="black"/>
<path d="M336.844 0H239.281C238.717 0 238.259 0.4599 238.27 1.0328C238.505 13.6843 242.872 37.2506 245.239 48.4713C245.34 48.9487 245.754 49.2816 246.235 49.2816H340.93C341.495 49.2816 341.952 48.817 341.952 48.244V5.18753C341.952 2.32254 339.665 0 336.844 0Z" fill="white"/>
<path fill-rule="evenodd" clip-rule="evenodd" d="M237.223 1.68517C237.205 0.742471 237.969 0 238.886 0H337.208C340.407 0 343 2.60003 343 5.80732V48.6524C343 49.579 342.251 50.3301 341.327 50.3301H245.893C245.112 50.3301 244.427 49.793 244.261 49.0138C241.877 37.8555 237.461 14.3461 237.223 1.68517ZM238.886 1.29052C238.666 1.29052 238.506 1.46333 238.51 1.6608C238.745 14.1787 243.132 37.5703 245.519 48.7434C245.556 48.9143 245.705 49.0396 245.893 49.0396H341.327C341.54 49.0396 341.713 48.8662 341.713 48.6524V5.80732C341.713 3.31276 339.696 1.29052 337.208 1.29052H238.886Z" fill="black"/>
<path d="M301.571 41.6702C278.365 43.0886 254.087 37.0916 243.766 33.6092C243.389 33.4821 242.991 33.5707 242.722 33.8649C233.764 43.6823 222.934 74.7837 217.362 93.323C217.026 94.4414 218.995 95.5355 219.941 94.8557C234.985 84.0459 265.378 98.166 280.803 108.631C281.214 108.91 281.755 108.853 282.106 108.5L294.073 96.4841C294.505 96.0504 295.216 96.0877 295.6 96.5644L311.12 115.801C311.268 115.985 311.349 116.214 311.349 116.451V120.136C311.349 120.507 311.543 120.851 311.872 121.019C319.056 124.676 334.392 123.883 342.113 122.919C342.624 122.855 343 122.418 343 121.901V36.7248C343 35.997 342.269 35.4881 341.579 35.7102C336.292 37.4114 322.956 40.3631 301.571 41.6702Z" fill="#364862"/>
<path fill-rule="evenodd" clip-rule="evenodd" d="M241.797 34.0669C242.249 33.5772 242.918 33.4419 243.516 33.6413C253.773 37.0597 277.918 42.9481 300.969 41.5565C322.279 40.2699 335.534 37.366 340.744 35.7099C341.825 35.3663 343 36.1445 343 37.3166V121.29C343 122.113 342.391 122.822 341.552 122.926C337.674 123.404 331.889 123.839 326.164 123.702C320.469 123.565 314.723 122.86 310.999 120.988C310.437 120.705 310.125 120.135 310.125 119.55V115.917C310.125 115.83 310.095 115.745 310.039 115.677L294.549 96.712C294.405 96.5358 294.139 96.522 293.977 96.6823L282.033 108.529C281.47 109.087 280.59 109.185 279.919 108.735C272.261 103.603 260.886 97.576 249.575 94.1608C238.216 90.731 227.149 90.0034 219.905 95.1445C219.134 95.692 218.107 95.4657 217.444 95.0879C217.09 94.8857 216.758 94.5998 216.538 94.2437C216.313 93.8798 216.195 93.4183 216.343 92.9315C219.127 83.7809 223.226 71.5272 227.75 60.3446C230.013 54.7535 232.384 49.4221 234.755 44.8766C237.12 40.3405 239.503 36.5495 241.797 34.0669ZM243.107 34.8486C242.953 34.7974 242.827 34.8368 242.743 34.9273C240.566 37.2841 238.245 40.9554 235.895 45.4617C233.55 49.9587 231.195 55.25 228.942 60.8189C224.436 71.9565 220.35 84.1726 217.572 93.2995C217.553 93.364 217.554 93.4508 217.633 93.5783C217.717 93.7136 217.872 93.8623 218.085 93.9839C218.557 94.2534 218.985 94.2314 219.158 94.1087C226.93 88.5926 238.538 89.4968 249.949 92.9424C261.409 96.4026 272.9 102.494 280.638 107.68C280.788 107.781 280.988 107.765 281.125 107.628L293.069 95.7817C293.77 95.0868 294.923 95.1466 295.547 95.9102L311.037 114.875C311.278 115.17 311.409 115.538 311.409 115.917V119.55C311.409 119.696 311.484 119.804 311.58 119.852C315.026 121.585 320.518 122.292 326.195 122.428C331.844 122.564 337.565 122.134 341.394 121.662C341.574 121.639 341.716 121.486 341.716 121.29V37.3166C341.716 37.0536 341.433 36.8284 341.136 36.9228C335.793 38.6211 322.425 41.5371 301.047 42.8278C277.772 44.2329 253.453 38.2968 243.107 34.8486Z" fill="black"/>
<path fill-rule="evenodd" clip-rule="evenodd" d="M244.378 36.8863C244.614 37.137 244.614 37.5434 244.378 37.7941C244.378 37.7941 244.378 37.7944 244.378 37.7951C244.37 37.8055 244.301 37.9021 244.16 38.149C244.025 38.3838 243.854 38.7026 243.654 39.0894C243.255 39.8619 242.753 40.8885 242.227 42.0214C241.172 44.295 240.04 46.959 239.449 48.8416C239.344 49.178 239.001 49.3598 238.685 49.2476C238.368 49.1355 238.197 48.772 238.303 48.4356C238.92 46.4665 240.084 43.7381 241.143 41.4538C241.675 40.3077 242.185 39.264 242.594 38.4718C242.799 38.0762 242.98 37.7389 243.128 37.4813C243.259 37.2519 243.402 37.0154 243.524 36.8863C243.76 36.6356 244.142 36.6356 244.378 36.8863Z" fill="#1C2533"/>
<path fill-rule="evenodd" clip-rule="evenodd" d="M249.617 39.9098C249.856 39.6469 249.847 39.2439 249.59 38.9919C249.323 38.7306 248.89 38.7306 248.624 38.9919C248.528 39.086 248.452 39.2083 248.407 39.2835C248.35 39.3779 248.287 39.4932 248.22 39.6222C248.086 39.8812 247.922 40.2236 247.737 40.6246C247.365 41.4282 246.898 42.4921 246.401 43.6495C245.406 45.9657 244.284 48.6735 243.555 50.4604C243.415 50.8036 243.585 51.1931 243.935 51.3304C244.286 51.4677 244.683 51.3007 244.823 50.9575C245.551 49.175 246.669 46.4751 247.66 44.1688C248.155 43.0149 248.617 41.964 248.981 41.1769C249.163 40.7826 249.318 40.4608 249.439 40.2276C249.499 40.1104 249.548 40.0227 249.584 39.9622C249.601 39.9334 249.612 39.9171 249.617 39.9098Z" fill="#1C2533"/>
<path fill-rule="evenodd" clip-rule="evenodd" d="M254.738 40.9575C254.996 41.109 255.101 41.4775 254.972 41.7806C254.525 42.8281 253.83 44.6015 253.206 46.4996C252.579 48.4091 252.04 50.3963 251.881 51.8891C251.845 52.2253 251.584 52.4638 251.297 52.4218C251.01 52.3797 250.806 52.0731 250.842 51.7369C251.018 50.0886 251.596 47.9858 252.229 46.0589C252.866 44.1206 253.574 42.3112 254.035 41.2318C254.164 40.9288 254.479 40.806 254.738 40.9575Z" fill="#1C2533"/>
<path fill-rule="evenodd" clip-rule="evenodd" d="M262.201 43.0133C262.424 42.7559 262.409 42.3742 262.156 42.1333C261.887 41.8774 261.45 41.8774 261.181 42.1333C261.051 42.2572 260.973 42.4126 260.929 42.5066C260.876 42.62 260.826 42.7518 260.779 42.8909C260.685 43.1701 260.583 43.5307 260.475 43.9402C260.374 44.3237 260.272 44.7253 260.164 45.1566C260.024 45.7103 259.872 46.3132 259.692 46.9903C259.069 49.3272 258.263 51.9187 257.223 53.525C257.024 53.8333 257.125 54.2369 257.449 54.4266C257.773 54.6163 258.198 54.5202 258.397 54.212C259.562 52.4106 260.41 49.6284 261.027 47.3124C261.199 46.6699 261.366 46.0094 261.514 45.4205C261.625 44.9813 261.726 44.5819 261.811 44.2596C261.919 43.8541 262.011 43.5286 262.091 43.2927C262.131 43.1743 262.164 43.0914 262.188 43.038C262.193 43.0277 262.197 43.0195 262.201 43.0133ZM262.208 43.0003C262.209 42.9984 262.209 42.9975 262.209 42.9976C262.209 42.9976 262.209 42.9985 262.208 43.0003Z" fill="#1C2533"/>
<path fill-rule="evenodd" clip-rule="evenodd" d="M267.111 44.044C267.418 44.0913 267.632 44.4077 267.59 44.7506C267.439 45.9734 267.156 47.9547 266.798 49.9354C266.443 51.9011 266.004 53.9199 265.532 55.1862C265.413 55.5057 265.085 55.6568 264.799 55.5237C264.513 55.3905 264.377 55.0235 264.496 54.704C264.922 53.5632 265.343 51.6539 265.699 49.6872C266.051 47.7356 266.33 45.7803 266.478 44.5793C266.521 44.2364 266.804 43.9967 267.111 44.044Z" fill="#1C2533"/>
<path fill-rule="evenodd" clip-rule="evenodd" d="M274.344 45.1083C274.759 45.1997 275.008 45.5576 274.9 45.9078C274.282 47.9058 273.129 52.6792 273.369 55.9247C273.396 56.2859 273.071 56.597 272.642 56.6196C272.214 56.6422 271.845 56.3676 271.818 56.0064C271.562 52.5413 272.771 47.5983 273.396 45.577C273.504 45.2268 273.929 45.0169 274.344 45.1083Z" fill="#1C2533"/>
<path fill-rule="evenodd" clip-rule="evenodd" d="M280.555 46.1357C280.917 46.1357 281.21 46.4174 281.21 46.7649C281.21 48.1577 281.17 50.3958 281.052 52.5916C280.934 54.768 280.737 56.9659 280.405 58.2416C280.317 58.5787 279.962 58.7836 279.611 58.6993C279.26 58.6151 279.047 58.2735 279.135 57.9364C279.431 56.7962 279.626 54.7162 279.745 52.5265C279.862 50.3562 279.901 48.1401 279.901 46.7649C279.901 46.4174 280.194 46.1357 280.555 46.1357Z" fill="#1C2533"/>
<path fill-rule="evenodd" clip-rule="evenodd" d="M287.941 46.1455C288.336 46.2053 288.599 46.5257 288.528 46.861C288.292 47.9851 288.005 49.9049 287.922 51.9793C287.838 54.0635 287.962 56.2507 288.513 57.9363C288.621 58.2645 288.394 58.6044 288.008 58.6956C287.621 58.7868 287.221 58.5946 287.114 58.2664C286.503 56.3994 286.384 54.0635 286.47 51.9372C286.556 49.801 286.85 47.8228 287.098 46.6442C287.169 46.3089 287.546 46.0856 287.941 46.1455Z" fill="#1C2533"/>
<path fill-rule="evenodd" clip-rule="evenodd" d="M295.176 46.136C295.532 46.1251 295.829 46.4095 295.84 46.7712C295.883 48.2259 295.896 50.5368 295.794 52.7524C295.743 53.8601 295.663 54.9524 295.542 55.9061C295.423 56.8464 295.258 57.7013 295.02 58.3061C294.888 58.6422 294.513 58.8056 294.183 58.6712C293.852 58.5368 293.691 58.1554 293.824 57.8194C293.998 57.3757 294.147 56.6578 294.264 55.7386C294.379 54.8328 294.456 53.7789 294.506 52.6912C294.607 50.5162 294.594 48.2397 294.551 46.8109C294.54 46.4492 294.82 46.147 295.176 46.136Z" fill="#1C2533"/>
<path fill-rule="evenodd" clip-rule="evenodd" d="M301.762 46.1357C302.123 46.1357 302.416 46.4291 302.416 46.7911C302.416 48.2238 302.456 50.5054 302.573 52.6867C302.691 54.8987 302.887 56.9144 303.174 57.8745C303.278 58.2211 303.082 58.5865 302.735 58.6905C302.389 58.7945 302.024 58.5977 301.92 58.2511C301.58 57.1141 301.382 54.9357 301.265 52.757C301.147 50.5475 301.107 48.2418 301.107 46.7911C301.107 46.4291 301.4 46.1357 301.762 46.1357Z" fill="#1C2533"/>
<path fill-rule="evenodd" clip-rule="evenodd" d="M301.762 46.1357C302.123 46.1357 302.416 46.4291 302.416 46.7911C302.416 48.2238 302.456 50.5054 302.573 52.6867C302.691 54.8987 302.887 56.9144 303.174 57.8745C303.278 58.2211 303.082 58.5865 302.735 58.6905C302.389 58.7945 302.024 58.5977 301.92 58.2511C301.58 57.1141 301.382 54.9357 301.265 52.757C301.147 50.5475 301.107 48.2418 301.107 46.7911C301.107 46.4291 301.4 46.1357 301.762 46.1357Z" fill="#1C2533"/>
<path fill-rule="evenodd" clip-rule="evenodd" d="M309.225 46.1357C309.659 46.1357 310.01 46.4104 310.01 46.7493C310.01 46.7462 310.01 46.7469 310.011 46.7523C310.012 46.763 310.015 46.792 310.023 46.8475C310.034 46.9204 310.05 47.0181 310.071 47.1397C310.113 47.3825 310.174 47.7081 310.247 48.0975C310.276 48.2492 310.307 48.4104 310.339 48.5797C310.471 49.2766 310.63 50.1106 310.788 50.9889C311.179 53.1551 311.581 55.6549 311.581 57.0562C311.581 57.395 311.23 57.6697 310.796 57.6697C310.362 57.6697 310.01 57.395 310.01 57.0562C310.01 55.7581 309.627 53.3498 309.233 51.1601C309.075 50.2867 308.918 49.4584 308.785 48.7617C308.753 48.5918 308.722 48.4298 308.693 48.2769C308.62 47.8879 308.558 47.5558 308.514 47.305C308.475 47.079 308.439 46.8628 308.439 46.7493C308.439 46.4104 308.791 46.1357 309.225 46.1357Z" fill="#1C2533"/>
<path fill-rule="evenodd" clip-rule="evenodd" d="M316.447 46.1385C316.858 46.1068 317.223 46.3508 317.262 46.6834L317.861 51.7647C317.9 52.0973 317.598 52.3926 317.187 52.4242C316.776 52.4559 316.411 52.212 316.371 51.8794L315.773 46.7981C315.734 46.4655 316.035 46.1702 316.447 46.1385Z" fill="#1C2533"/>
<path fill-rule="evenodd" clip-rule="evenodd" d="M234.127 50.7388C234.258 50.4063 234.633 50.2432 234.964 50.3745C252.093 57.1645 296.933 68.4314 339.076 59.1474C339.424 59.0708 339.767 59.2917 339.844 59.6409C339.92 59.9901 339.7 60.3353 339.352 60.4119C296.874 69.7699 251.761 58.4248 234.49 51.5786C234.159 51.4473 233.996 51.0713 234.127 50.7388Z" fill="#1C2533"/>
<path fill-rule="evenodd" clip-rule="evenodd" d="M309.225 46.1357C309.659 46.1357 310.01 46.4104 310.01 46.7493C310.01 46.7462 310.01 46.7469 310.011 46.7523C310.012 46.763 310.015 46.792 310.023 46.8475C310.034 46.9204 310.05 47.0181 310.071 47.1397C310.113 47.3825 310.174 47.7081 310.247 48.0975C310.276 48.2492 310.307 48.4104 310.339 48.5797C310.471 49.2766 310.63 50.1106 310.788 50.9889C311.179 53.1551 311.581 55.6549 311.581 57.0562C311.581 57.395 311.23 57.6697 310.796 57.6697C310.362 57.6697 310.01 57.395 310.01 57.0562C310.01 55.7581 309.627 53.3498 309.233 51.1601C309.075 50.2867 308.918 49.4584 308.785 48.7617C308.753 48.5918 308.722 48.4298 308.693 48.2769C308.62 47.8879 308.558 47.5558 308.514 47.305C308.475 47.079 308.439 46.8628 308.439 46.7493C308.439 46.4104 308.791 46.1357 309.225 46.1357Z" fill="#1C2533"/>
<path fill-rule="evenodd" clip-rule="evenodd" d="M240.545 63.1866C234.365 63.4952 231.775 66.1624 231.151 68.2669C231.05 68.6091 230.692 68.8038 230.352 68.7017C230.012 68.5996 229.818 68.2395 229.92 67.8973C230.752 65.0878 233.97 62.2202 240.482 61.8951C246.987 61.5703 256.892 63.7579 271.431 71.1255C271.748 71.2861 271.875 71.6748 271.716 71.9938C271.556 72.3127 271.17 72.4411 270.853 72.2805C256.402 64.9576 246.731 62.8778 240.545 63.1866Z" fill="#1C2533"/>
<path fill-rule="evenodd" clip-rule="evenodd" d="M263.173 72.812C256.852 70.5446 252.538 70.3127 250.559 70.7314C250.211 70.8049 249.873 70.5666 249.804 70.1991C249.734 69.8316 249.959 69.4742 250.307 69.4007C252.605 68.9146 257.17 69.2256 263.585 71.5269C270.024 73.8364 278.378 78.1685 288.277 85.8025C288.564 86.0233 288.627 86.4477 288.418 86.7505C288.209 87.0533 287.808 87.1198 287.521 86.899C277.712 79.334 269.472 75.0713 263.173 72.812Z" fill="#1C2533"/>
<path fill-rule="evenodd" clip-rule="evenodd" d="M253.984 79.1906C254.019 78.8555 254.342 78.6106 254.705 78.6436C267.719 79.8258 280.364 85.3642 285.08 87.9945C285.392 88.1685 285.493 88.5432 285.304 88.8314C285.116 89.1197 284.71 89.2122 284.398 89.0382C279.786 86.4665 267.331 81.0157 254.576 79.857C254.213 79.824 253.948 79.5257 253.984 79.1906Z" fill="#1C2533"/>
<path fill-rule="evenodd" clip-rule="evenodd" d="M313.693 115.787C313.775 115.474 314.118 115.281 314.46 115.356C316.395 115.78 319.543 116.382 322.684 116.808C325.852 117.238 328.92 117.474 330.745 117.211C331.092 117.16 331.417 117.377 331.472 117.695C331.527 118.013 331.29 118.311 330.943 118.361C328.902 118.656 325.654 118.388 322.497 117.96C319.314 117.528 316.129 116.919 314.164 116.489C313.822 116.414 313.612 116.1 313.693 115.787Z" fill="#1C2533"/>
<path fill-rule="evenodd" clip-rule="evenodd" d="M241.277 163.831C241.494 164.124 241.445 164.547 241.168 164.776C234.027 170.674 227.732 172.316 222.729 171.901C217.742 171.488 214.098 169.036 212.249 166.847C212.015 166.569 212.038 166.144 212.301 165.897C212.564 165.65 212.967 165.674 213.201 165.952C214.838 167.89 218.18 170.174 222.828 170.559C227.459 170.943 233.446 169.445 240.382 163.716C240.659 163.487 241.06 163.539 241.277 163.831Z" fill="#B2544C"/>
<path d="M245.609 116.061C242.75 121.685 246.479 127.063 240.243 126.132C240.137 126.116 240.03 126.083 239.937 126.032C236.86 124.334 233.958 118.455 237.251 111.977C240.574 105.443 249.207 103.322 253.123 103.914C253.173 103.921 253.226 103.935 253.275 103.951C260.982 106.475 248.941 109.507 245.609 116.061Z" fill="#DC9A91"/>
<path d="M297.159 110.796C303.257 104.87 329.197 77.491 341.678 64.2532C341.859 64.062 341.952 63.816 341.952 63.5526V23.0033C341.952 22.2169 341.133 21.7345 340.506 22.2051C326.953 32.384 297.669 84.468 283.849 96.1283C276.506 102.324 270.028 116.028 265.42 125.978C256.888 141.16 241.872 170.958 250.063 168.694C260.301 165.863 257.742 154.026 264.397 152.225C269.695 150.791 282.532 131.905 288.373 122.509C288.43 122.418 288.469 122.323 288.5 122.22C288.959 120.703 291.232 116.556 297.159 110.796Z" fill="#F7BDB1"/>
<path fill-rule="evenodd" clip-rule="evenodd" d="M342.179 22.215C342.666 22.4881 343 23.0182 343 23.6439V64.1281C343 64.5485 342.847 64.9542 342.547 65.2694C329.966 78.4787 303.791 105.828 297.628 111.757C291.682 117.478 289.48 121.526 289.064 122.888C289.021 123.027 288.962 123.178 288.866 123.33C285.914 128.032 281.193 135.108 276.536 141.194C274.209 144.236 271.888 147.042 269.806 149.184C268.765 150.255 267.773 151.169 266.863 151.866C265.962 152.555 265.095 153.066 264.305 153.278C262.838 153.671 261.859 154.606 261.05 155.923C260.401 156.979 259.893 158.223 259.338 159.583C259.184 159.961 259.026 160.347 258.86 160.741C257.36 164.313 255.319 168.223 249.853 169.719C249.27 169.879 248.716 169.919 248.222 169.777C247.706 169.63 247.318 169.304 247.062 168.857C246.586 168.027 246.57 166.797 246.768 165.43C247.173 162.633 248.591 158.586 250.507 154.059C254.346 144.985 260.289 133.747 264.596 126.159C266.916 121.198 269.718 115.281 272.869 109.827C276.018 104.376 279.549 99.3277 283.342 96.1594C286.759 93.3045 291.178 87.9309 296.123 81.2561C300.764 74.9922 305.833 67.6329 310.928 60.2349C311.25 59.7671 311.573 59.2992 311.895 58.8314C317.311 50.9708 322.727 43.1422 327.646 36.6428C332.55 30.1627 337.009 24.9353 340.51 22.3325C341.041 21.9379 341.682 21.9369 342.179 22.215ZM341.546 23.3347C341.472 23.2931 341.384 23.2863 341.282 23.3616C337.949 25.84 333.59 30.9236 328.677 37.4156C323.779 43.8883 318.378 51.6928 312.959 59.5578C312.636 60.0276 312.312 60.4976 311.988 60.9675C306.897 68.3593 301.816 75.736 297.162 82.0185C292.222 88.6855 287.722 94.1775 284.171 97.1434C280.558 100.161 277.119 105.047 273.988 110.467C270.864 115.875 268.079 121.756 265.755 126.724L265.744 126.747L265.732 126.769C261.435 134.339 255.511 145.541 251.696 154.558C249.783 159.08 248.425 162.994 248.046 165.613C247.851 166.954 247.94 167.796 248.183 168.22C248.286 168.4 248.412 168.495 248.578 168.543C248.765 168.596 249.061 168.604 249.511 168.481C254.37 167.151 256.201 163.74 257.669 160.246C257.821 159.886 257.969 159.522 258.118 159.158C258.679 157.782 259.239 156.408 259.949 155.253C260.866 153.76 262.081 152.544 263.97 152.038C264.516 151.891 265.223 151.5 266.076 150.847C266.919 150.202 267.862 149.336 268.878 148.291C270.91 146.201 273.196 143.439 275.51 140.416C280.135 134.371 284.833 127.329 287.772 122.65C287.79 122.62 287.808 122.581 287.829 122.514C288.339 120.846 290.722 116.615 296.731 110.833C302.868 104.929 329.016 77.6095 341.61 64.3857C341.673 64.3191 341.709 64.2337 341.709 64.1281V23.6439C341.709 23.4845 341.629 23.3813 341.546 23.3347Z" fill="black"/>
<path d="M273.115 104.527C275.174 104.527 277.016 104.22 278.476 103.84C279.441 103.589 280.504 104.748 280.054 105.645L269.713 126.288C269.334 127.045 268.21 127.06 267.707 126.379C265.155 122.922 259.325 118.293 249.698 118.64C238.295 119.051 239.687 114.192 241.808 111.712C242.656 110.514 245.982 108.376 252.498 109.402C259.014 110.429 262.849 108.974 263.952 108.119C265.309 106.922 269.042 104.527 273.115 104.527Z" fill="#F7BDB1"/>
<path fill-rule="evenodd" clip-rule="evenodd" d="M282.178 102.054C282.347 102.372 282.23 102.77 281.917 102.941C280.709 103.603 277.341 104.855 273.11 104.855C269.204 104.855 265.571 107.195 264.26 108.362L264.244 108.376L264.228 108.389C263.558 108.913 262.198 109.531 260.206 109.891C258.196 110.254 255.505 110.362 252.143 109.827C245.689 108.801 242.613 110.97 241.946 111.92L241.929 111.944L241.91 111.967C241.412 112.554 240.976 113.263 240.755 113.971C240.537 114.674 240.546 115.32 240.845 115.867C241.147 116.419 241.813 117 243.175 117.417C244.539 117.834 246.537 118.065 249.386 117.962C261.205 117.532 267.577 124.41 269.31 128.029C269.465 128.354 269.332 128.746 269.013 128.905C268.693 129.063 268.307 128.928 268.152 128.603C266.621 125.405 260.695 118.862 249.432 119.272C246.51 119.378 244.356 119.146 242.804 118.672C241.252 118.197 240.24 117.457 239.719 116.504C239.196 115.546 239.239 114.502 239.527 113.575C239.811 112.662 240.347 111.809 240.916 111.133C241.99 109.637 245.643 107.467 252.342 108.532C255.575 109.046 258.122 108.936 259.981 108.6C261.837 108.265 262.971 107.712 263.428 107.361C264.878 106.077 268.789 103.544 273.11 103.544C277.122 103.544 280.281 102.349 281.306 101.787C281.619 101.616 282.01 101.735 282.178 102.054Z" fill="black"/>
<path d="M219.24 115.348C220.829 112.549 220.493 109.63 220.108 108.447C220.093 108.4 220.072 108.353 220.049 108.309C218.624 105.524 220.148 105.717 221.097 106.167C222.73 106.79 226.129 109.261 226.67 114.158C227.345 120.278 223.63 126.739 218.227 125.719C213.905 124.903 215.188 121.638 216.37 120.108C216.651 119.712 217.619 118.204 219.24 115.348Z" fill="#DC9A91"/>
<path d="M218.975 110.422C216.84 109.253 214.689 105.839 213.743 104.027C213.647 103.842 213.5 103.689 213.318 103.588L206.313 99.7343C205.924 99.5202 205.428 99.5775 205.22 99.9704C204.156 101.974 204.384 107.212 211.806 116.588C218.72 125.322 222.56 120.955 222.56 116.588C222.56 114.533 221.228 111.655 218.975 110.422Z" fill="#F7BDB1"/>
<path fill-rule="evenodd" clip-rule="evenodd" d="M206.78 98.7695C207.018 99.0341 207.006 99.4506 206.753 99.6996C206.273 100.17 205.658 101.629 206.278 104.427C206.891 107.197 208.701 111.164 212.864 116.436C214.603 118.638 216.091 119.97 217.321 120.684C218.547 121.395 219.472 121.471 220.143 121.258C220.818 121.045 221.363 120.501 221.751 119.703C222.14 118.903 222.345 117.89 222.345 116.854C222.345 115.93 222.053 114.774 221.489 113.695C220.925 112.618 220.12 111.672 219.141 111.115C217.904 110.412 216.722 109.04 215.768 107.691C214.802 106.324 214.014 104.896 213.579 103.989C213.423 103.664 213.55 103.269 213.861 103.106C214.173 102.944 214.552 103.075 214.708 103.4C215.114 104.248 215.866 105.61 216.784 106.91C217.715 108.227 218.762 109.401 219.745 109.96C220.987 110.667 221.948 111.826 222.596 113.065C223.243 114.302 223.607 115.673 223.607 116.854C223.607 118.056 223.371 119.28 222.877 120.298C222.381 121.318 221.602 122.172 220.51 122.517C219.415 122.864 218.132 122.66 216.707 121.834C215.288 121.01 213.684 119.545 211.89 117.273C207.655 111.909 205.721 107.761 205.048 104.724C204.382 101.715 204.937 99.6745 205.888 98.7413C206.142 98.4923 206.541 98.5049 206.78 98.7695Z" fill="black"/>
<path fill-rule="evenodd" clip-rule="evenodd" d="M266.623 28.6818C264.215 29.3877 262.965 30.259 262.48 30.9647C262.289 31.2423 261.895 31.3216 261.601 31.1416C261.306 30.9616 261.222 30.5906 261.413 30.3129C262.139 29.2564 263.735 28.2735 266.246 27.5376C268.781 26.7945 272.341 26.2755 277.132 26.219C286.716 26.1059 301.303 27.8421 322.635 33.4256C322.974 33.5141 323.172 33.8444 323.078 34.1632C322.984 34.4821 322.633 34.6688 322.295 34.5802C301.029 29.0141 286.569 27.306 277.148 27.4172C272.437 27.4728 269.007 27.9832 266.623 28.6818Z" fill="#D7D7D7"/>
<path fill-rule="evenodd" clip-rule="evenodd" d="M288.576 15.1153C288.692 14.7789 289.062 14.5994 289.402 14.7145L328.946 28.1061C329.285 28.2212 329.467 28.5873 329.35 28.9237C329.234 29.2601 328.864 29.4396 328.525 29.3245L288.981 15.9329C288.641 15.8178 288.46 15.4517 288.576 15.1153Z" fill="#D7D7D7"/>
<circle cx="232" cy="108" r="42" fill="#7A60FF" fill-opacity="0.3" stroke="#7A60FF" stroke-width="2" stroke-dasharray="2 2"/>
<path d="M18.9345 113.76V114.78H26.4945V113.76H18.9345ZM18.9345 111.624V114.108H20.1945V111.624H18.9345ZM17.6865 109.824V110.832H27.6225V109.824H17.6865ZM22.0065 108.12V110.208H23.2545V108.12H22.0065ZM21.9945 104.328V104.748C21.9945 106.164 20.4465 107.484 18.2745 107.808L18.7665 108.804C21.2265 108.372 23.0745 106.8 23.0745 104.748V104.328H21.9945ZM22.1985 104.328V104.748C22.1985 106.824 24.0465 108.36 26.5065 108.804L26.9865 107.808C24.8145 107.496 23.2665 106.188 23.2665 104.748V104.328H22.1985ZM35.9735 104.016V114.984H37.2335V104.016H35.9735ZM36.8975 108.36V109.392H38.8775V108.36H36.8975ZM33.1295 105.18V105.396C33.1295 108.324 31.6775 110.52 28.7135 112.032L29.4215 112.992C33.0095 111.192 34.3655 108.372 34.3655 105.18H33.1295ZM29.2655 105.18V106.2H33.7775V105.18H29.2655ZM40.2086 109.176V110.208H41.0966C43.2086 110.208 44.6246 110.148 46.2686 109.848L46.1606 108.828C44.5406 109.116 43.1606 109.176 41.0966 109.176H40.2086ZM40.1846 104.652V105.672H43.9166V106.896H40.2086V109.668H41.4446V107.844H45.1526V104.652H40.1846ZM47.0726 104.04V110.7H48.3326V104.04H47.0726ZM47.9606 106.752V107.796H49.8806V106.752H47.9606ZM41.1206 111.24V112.248H47.0726V114.996H48.3326V111.24H41.1206ZM54.3557 104.796C52.6397 104.796 51.3677 105.876 51.3677 107.424C51.3677 108.984 52.6397 110.064 54.3557 110.064C56.0717 110.064 57.3197 108.984 57.3197 107.424C57.3197 105.876 56.0717 104.796 54.3557 104.796ZM54.3557 105.876C55.3517 105.876 56.0957 106.476 56.0957 107.424C56.0957 108.372 55.3517 108.984 54.3557 108.984C53.3477 108.984 52.6037 108.372 52.6037 107.424C52.6037 106.476 53.3477 105.876 54.3557 105.876ZM58.5797 104.016V115.008H59.8397V104.016H58.5797ZM51.0197 112.692C52.9517 112.692 55.5917 112.668 58.0157 112.2L57.9197 111.288C55.5557 111.636 52.8317 111.66 50.8637 111.66L51.0197 112.692ZM71.834 104.028V111.972H73.106V104.028H71.834ZM72.734 107.232V108.276H74.654V107.232H72.734ZM68.822 104.868V105.456C68.822 107.4 67.238 108.996 64.514 109.8L65.042 110.808C68.246 109.836 70.154 107.76 70.154 104.868H68.822ZM64.97 104.868V105.888H69.482V104.868H64.97ZM66.158 113.76V114.78H73.538V113.76H66.158ZM66.158 111.168V114.192H67.418V111.168H66.158ZM80.0291 104.748V105.336C80.0291 107.22 78.4811 108.744 75.7211 109.488L76.2131 110.472C79.4411 109.596 81.3491 107.604 81.3491 104.748H80.0291ZM76.3091 104.748V105.756H80.8211V104.748H76.3091ZM77.2811 111.036V112.032H83.4131V114.96H84.6731V111.036H77.2811ZM83.4131 104.028V110.556H84.6731V104.028H83.4131ZM80.8691 105.9V106.908H83.6411V105.9H80.8691ZM80.7611 108.228V109.248H83.5571V108.228H80.7611ZM91.5722 104.196C89.1122 104.196 87.6722 104.868 87.6722 106.092C87.6722 107.304 89.1122 107.976 91.5722 107.976C94.0322 107.976 95.4842 107.304 95.4842 106.092C95.4842 104.868 94.0322 104.196 91.5722 104.196ZM91.5722 105.132C93.2762 105.132 94.1762 105.468 94.1762 106.092C94.1762 106.716 93.2762 107.04 91.5722 107.04C89.8802 107.04 88.9682 106.716 88.9682 106.092C88.9682 105.468 89.8802 105.132 91.5722 105.132ZM86.6162 108.612V109.608H96.5282V108.612H86.6162ZM87.7922 110.412V111.348H94.0562V112.14H87.8042V114.204H89.0522V113.028H95.2922V110.412H87.7922ZM87.8042 113.928V114.9H95.6042V113.928H87.8042ZM103.051 109.116V110.592H104.311V109.116H103.051ZM107.683 104.04V111.444H108.943V104.04H107.683ZM108.463 107.268V108.312H110.443V107.268H108.463ZM100.411 111.168C102.331 111.156 104.887 111.144 107.203 110.736L107.107 109.86C104.863 110.16 102.223 110.172 100.267 110.172L100.411 111.168ZM101.635 111.936V112.92H107.683V114.996H108.943V111.936H101.635ZM100.543 104.94V105.864H106.807V104.94H100.543ZM103.675 106.212C102.091 106.212 101.071 106.836 101.071 107.832C101.071 108.84 102.091 109.464 103.675 109.464C105.247 109.464 106.279 108.84 106.279 107.832C106.279 106.836 105.247 106.212 103.675 106.212ZM103.675 107.052C104.551 107.052 105.091 107.328 105.091 107.832C105.091 108.324 104.551 108.624 103.675 108.624C102.799 108.624 102.259 108.324 102.259 107.832C102.259 107.328 102.799 107.052 103.675 107.052ZM103.051 103.944V105.372H104.311V103.944H103.051ZM119.178 104.04V111.984H120.438V104.04H119.178ZM113.274 113.76V114.78H120.75V113.76H113.274ZM113.274 111.18V114.144H114.534V111.18H113.274ZM114.522 104.772C112.866 104.772 111.606 105.9 111.606 107.508C111.606 109.092 112.866 110.244 114.522 110.244C116.178 110.244 117.426 109.092 117.426 107.508C117.426 105.9 116.178 104.772 114.522 104.772ZM114.522 105.852C115.482 105.852 116.202 106.5 116.202 107.508C116.202 108.492 115.482 109.14 114.522 109.14C113.562 109.14 112.83 108.492 112.83 107.508C112.83 106.5 113.562 105.852 114.522 105.852ZM122.417 105.804V106.812H127.769V105.804H122.417ZM125.105 107.436C123.737 107.436 122.729 108.492 122.729 109.992C122.729 111.492 123.737 112.536 125.105 112.536C126.485 112.536 127.481 111.492 127.481 109.992C127.481 108.492 126.485 107.436 125.105 107.436ZM125.105 108.492C125.837 108.492 126.365 109.092 126.365 109.992C126.365 110.904 125.837 111.48 125.105 111.48C124.373 111.48 123.845 110.904 123.845 109.992C123.845 109.092 124.373 108.492 125.105 108.492ZM130.577 104.028V114.996H131.777V104.028H130.577ZM129.017 108.576V109.596H130.973V108.576H129.017ZM128.249 104.256V114.492H129.425V104.256H128.249ZM124.493 104.34V106.428H125.729V104.34H124.493ZM140.411 105.168V105.576C140.411 106.872 138.851 108.12 136.703 108.408L137.183 109.392C139.643 109.02 141.503 107.52 141.503 105.576V105.168H140.411ZM140.759 105.168V105.576C140.759 107.52 142.607 109.02 145.079 109.392L145.547 108.408C143.411 108.12 141.839 106.872 141.839 105.576V105.168H140.759ZM140.471 110.892V114.996H141.719V110.892H140.471ZM136.175 110.184V111.204H146.087V110.184H136.175ZM137.075 104.652V105.66H145.151V104.652H137.075ZM151.522 107.844V108.876H153.502V107.844H151.522ZM149.35 105.024V107.004C149.35 108.876 148.594 110.832 147.046 111.768L147.814 112.716C149.482 111.696 150.322 109.38 150.322 107.004V105.024H149.35ZM149.614 105.024V106.956C149.614 109.188 150.346 111.456 151.99 112.476L152.698 111.492C151.234 110.568 150.562 108.72 150.562 106.956V105.024H149.614ZM155.374 104.028V114.996H156.574V104.028H155.374ZM153.142 104.232V114.468H154.318V104.232H153.142ZM160.569 109.644V112.824H161.817V109.644H160.569ZM164.589 109.644V112.824H165.849V109.644H164.589ZM158.253 112.62V113.652H168.189V112.62H158.253ZM163.197 104.652C160.857 104.652 159.165 105.78 159.165 107.532C159.165 109.272 160.857 110.4 163.197 110.4C165.537 110.4 167.229 109.272 167.229 107.532C167.229 105.78 165.537 104.652 163.197 104.652ZM163.197 105.636C164.853 105.636 166.005 106.368 166.005 107.532C166.005 108.684 164.853 109.416 163.197 109.416C161.541 109.416 160.389 108.684 160.389 107.532C160.389 106.368 161.541 105.636 163.197 105.636ZM170.336 111.192H171.26L171.452 106.392L171.488 104.952H170.096L170.132 106.392L170.336 111.192ZM170.792 114.168C171.32 114.168 171.716 113.76 171.716 113.196C171.716 112.62 171.32 112.224 170.792 112.224C170.276 112.224 169.868 112.62 169.868 113.196C169.868 113.76 170.276 114.168 170.792 114.168Z" fill="#7A60FF"/>
</svg>
